<svg width="64" height="14" viewBox="0 0 64 14" fill="none" xmlns="http://www.w3.org/2000/svg">
<path d="M3.194 10.624H7.226V13H0.116V0.364H3.194V10.624ZM19.5301 13.126C18.3421 13.126 17.2501 12.85 16.2541 12.298C15.2701 11.746 14.4841 10.978 13.8961 9.994C13.3201 8.998 13.0321 7.882 13.0321 6.646C13.0321 5.41 13.3201 4.3 13.8961 3.316C14.4841 2.332 15.2701 1.564 16.2541 1.012C17.2501 0.46 18.3421 0.184 19.5301 0.184C20.7181 0.184 21.8041 0.46 22.7881 1.012C23.7841 1.564 24.5641 2.332 25.1281 3.316C25.7041 4.3 25.9921 5.41 25.9921 6.646C25.9921 7.882 25.7041 8.998 25.1281 9.994C24.5521 10.978 23.7721 11.746 22.7881 12.298C21.8041 12.85 20.7181 13.126 19.5301 13.126ZM19.5301 10.318C20.5381 10.318 21.3421 9.982 21.9421 9.31C22.5541 8.638 22.8601 7.75 22.8601 6.646C22.8601 5.53 22.5541 4.642 21.9421 3.982C21.3421 3.31 20.5381 2.974 19.5301 2.974C18.5101 2.974 17.6941 3.304 17.0821 3.964C16.4821 4.624 16.1821 5.518 16.1821 6.646C16.1821 7.762 16.4821 8.656 17.0821 9.328C17.6941 9.988 18.5101 10.318 19.5301 10.318ZM40.9525 4.36C40.7245 3.94 40.3945 3.622 39.9625 3.406C39.5425 3.178 39.0445 3.064 38.4685 3.064C37.4725 3.064 36.6745 3.394 36.0745 4.054C35.4745 4.702 35.1745 5.572 35.1745 6.664C35.1745 7.828 35.4865 8.74 36.1105 9.4C36.7465 10.048 37.6165 10.372 38.7205 10.372C39.4765 10.372 40.1125 10.18 40.6285 9.796C41.1565 9.412 41.5405 8.86 41.7805 8.14H37.8745V5.872H44.5705V8.734C44.3425 9.502 43.9525 10.216 43.4005 10.876C42.8605 11.536 42.1705 12.07 41.3305 12.478C40.4905 12.886 39.5425 13.09 38.4865 13.09C37.2385 13.09 36.1225 12.82 35.1385 12.28C34.1665 11.728 33.4045 10.966 32.8525 9.994C32.3125 9.022 32.0425 7.912 32.0425 6.664C32.0425 5.416 32.3125 4.306 32.8525 3.334C33.4045 2.35 34.1665 1.588 35.1385 1.048C36.1105 0.495999 37.2205 0.219999 38.4685 0.219999C39.9805 0.219999 41.2525 0.585999 42.2845 1.318C43.3285 2.05 44.0185 3.064 44.3545 4.36H40.9525ZM57.1115 13.126C55.9235 13.126 54.8315 12.85 53.8355 12.298C52.8515 11.746 52.0655 10.978 51.4775 9.994C50.9015 8.998 50.6135 7.882 50.6135 6.646C50.6135 5.41 50.9015 4.3 51.4775 3.316C52.0655 2.332 52.8515 1.564 53.8355 1.012C54.8315 0.46 55.9235 0.184 57.1115 0.184C58.2995 0.184 59.3855 0.46 60.3695 1.012C61.3655 1.564 62.1455 2.332 62.7095 3.316C63.2855 4.3 63.5735 5.41 63.5735 6.646C63.5735 7.882 63.2855 8.998 62.7095 9.994C62.1335 10.978 61.3535 11.746 60.3695 12.298C59.3855 12.85 58.2995 13.126 57.1115 13.126ZM57.1115 10.318C58.1195 10.318 58.9235 9.982 59.5235 9.31C60.1355 8.638 60.4415 7.75 60.4415 6.646C60.4415 5.53 60.1355 4.642 59.5235 3.982C58.9235 3.31 58.1195 2.974 57.1115 2.974C56.0915 2.974 55.2755 3.304 54.6635 3.964C54.0635 4.624 53.7635 5.518 53.7635 6.646C53.7635 7.762 54.0635 8.656 54.6635 9.328C55.2755 9.988 56.0915 10.318 57.1115 10.318Z" fill="#00C4C4"/>
</svg>
