<svg width="116" height="164" viewBox="0 0 116 164" fill="none" xmlns="http://www.w3.org/2000/svg">
<g filter="url(#filter0_i_2_1977)">
<path d="M3.05176e-05 11.4725L90.5055 0V57.3627V66.5211V93.506V105.165V163.165L3.05176e-05 149.143V11.4725Z" fill="#2B6FB3"/>
</g>
<path d="M0.446185 148.761V11.8653L89.422 0.50673V56.7253V65.266V96.6438V105.802V162.644L0.446185 148.761Z" fill="url(#paint0_linear_2_1977)" stroke="#0C3D6E" stroke-width="0.892308"/>
<mask id="mask0_2_1977" style="mask-type:alpha" maskUnits="userSpaceOnUse" x="0" y="1" width="89" height="161">
<path d="M1.44445 148.347V12.319L88.4101 1.75892V56.4935V67.5118V91.2676V106.271V161.392L1.44445 148.347Z" fill="url(#paint1_linear_2_1977)" stroke="#E1E1E1" stroke-width="0.892308"/>
</mask>
<g mask="url(#mask0_2_1977)">
<ellipse cx="42.0258" cy="41.2885" rx="42.0258" ry="41.2885" transform="matrix(0.985556 0.16935 0 1 -12.5532 91.6237)" fill="#2F80ED"/>
<ellipse cx="35.7708" cy="35.1432" rx="35.7708" ry="35.1432" transform="matrix(0.985556 0.16935 0 1 33.8821 117.981)" fill="#00FFC2" fill-opacity="0.5"/>
</g>
<path d="M115.372 151.915L91.1331 162.216V105.165V93.5061V65.8935V57.3627V0.863855L115.372 8.74166V151.915Z" fill="url(#paint2_linear_2_1977)" stroke="#0C3D6F" stroke-width="1.25511"/>
<path d="M22.3778 76.2367L26.0825 76.5282V79.0736L19.0621 78.5211V66.5578L22.3778 66.8188V76.2367ZM34.7814 79.877C33.6649 79.7891 32.6386 79.4482 31.7025 78.8541C30.7664 78.2487 30.0221 77.4605 29.4695 76.4894C28.9281 75.5078 28.6575 74.4287 28.6575 73.2522C28.6575 72.0757 28.9281 71.0449 29.4695 70.1599C30.0221 69.2644 30.7664 68.5933 31.7025 68.1466C32.6386 67.6999 33.6649 67.5204 34.7814 67.6083C35.9092 67.6971 36.9354 68.038 37.8602 68.6312C38.7963 69.2253 39.535 70.0131 40.0763 70.9946C40.6177 71.9649 40.8883 73.0383 40.8883 74.2148C40.8883 75.3913 40.6177 76.4278 40.0763 77.3241C39.535 78.2092 38.7963 78.8807 37.8602 79.3387C36.9242 79.7855 35.8979 79.9649 34.7814 79.877ZM34.7814 76.7886C35.6272 76.8552 36.2926 76.6304 36.7776 76.1142C37.2738 75.599 37.5219 74.8775 37.5219 73.9499C37.5219 72.9996 37.2738 72.2334 36.7776 71.6514C36.2926 71.0589 35.6272 70.7293 34.7814 70.6628C33.9242 70.5953 33.2532 70.8197 32.7683 71.3358C32.2833 71.8407 32.0408 72.5682 32.0408 73.5185C32.0408 74.4575 32.2833 75.2232 32.7683 75.8157C33.2532 76.3968 33.9242 76.7212 34.7814 76.7886ZM51.6831 73.062C51.4914 72.7302 51.2264 72.4661 50.888 72.2698C50.561 72.0743 50.1719 71.9589 49.7208 71.9234C48.8862 71.8577 48.2265 72.0773 47.7415 72.5821C47.2678 73.0878 47.031 73.7989 47.031 74.7152C47.031 75.7447 47.2848 76.5509 47.7923 77.1338C48.311 77.7064 49.061 78.0312 50.0422 78.1085C51.2038 78.1999 52.0328 77.7391 52.529 76.726L49.1964 76.4638V74.0711L55.3879 74.5584V77.7825C55.1285 78.3956 54.7451 78.9594 54.2376 79.4738C53.7414 79.989 53.1098 80.3975 52.3429 80.6991C51.576 80.9895 50.702 81.096 49.7208 81.0188C48.5253 80.9247 47.4652 80.5868 46.5404 80.0049C45.6269 79.4126 44.9164 78.6384 44.4089 77.6821C43.9127 76.7154 43.6646 75.6381 43.6646 74.4503C43.6646 73.2737 43.9127 72.2468 44.4089 71.3696C44.9164 70.4819 45.6269 69.8194 46.5404 69.3822C47.4539 68.9337 48.5084 68.7565 49.7039 68.8506C51.2038 68.9687 52.4444 69.4283 53.4256 70.2295C54.4068 71.0308 55.0158 72.0686 55.2526 73.3429L51.6831 73.062ZM64.2834 82.1989C63.1669 82.111 62.1406 81.77 61.2045 81.176C60.2685 80.5706 59.5241 79.7824 58.9715 78.8112C58.4302 77.8296 58.1595 76.7506 58.1595 75.5741C58.1595 74.3975 58.4302 73.3668 58.9715 72.4817C59.5241 71.5863 60.2685 70.9152 61.2045 70.4684C62.1406 70.0217 63.1669 69.8423 64.2834 69.9302C65.4112 70.0189 66.4375 70.3599 67.3623 70.9531C68.2983 71.5471 69.037 72.3349 69.5784 73.3165C70.1197 74.2868 70.3904 75.3601 70.3904 76.5367C70.3904 77.7132 70.1197 78.7496 69.5784 79.646C69.037 80.531 68.2983 81.2026 67.3623 81.6606C66.4262 82.1073 65.3999 82.2867 64.2834 82.1989ZM64.2834 79.1105C65.1293 79.1771 65.7947 78.9523 66.2796 78.4361C66.7758 77.9208 67.0239 77.1994 67.0239 76.2717C67.0239 75.3214 66.7758 74.5553 66.2796 73.9732C65.7947 73.3807 65.1293 73.0512 64.2834 72.9846C63.4263 72.9172 62.7553 73.1415 62.2703 73.6577C61.7854 74.1625 61.5429 74.8901 61.5429 75.8404C61.5429 76.7793 61.7854 77.545 62.2703 78.1375C62.7553 78.7187 63.4263 79.043 64.2834 79.1105Z" fill="#0C5AC4"/>
<path d="M23.9951 136.225C24.2833 136.267 24.5405 136.36 24.7666 136.505C24.9927 136.65 25.1701 136.839 25.2986 137.073C25.4316 137.307 25.4981 137.583 25.4981 137.901C25.4981 138.246 25.4272 138.534 25.2853 138.764C25.1434 138.994 24.9306 139.156 24.6469 139.249C24.3676 139.343 24.0195 139.36 23.6028 139.3C23.3545 139.264 23.1195 139.207 22.8978 139.13C22.6806 139.054 22.4899 138.961 22.3259 138.852V137.979C22.4899 138.088 22.6872 138.19 22.9178 138.286C23.1483 138.378 23.3656 138.439 23.5695 138.468C23.769 138.497 23.9353 138.494 24.0683 138.46C24.2057 138.426 24.3099 138.358 24.3809 138.257C24.4518 138.155 24.4873 138.017 24.4873 137.842C24.4873 137.604 24.4097 137.414 24.2545 137.271C24.0993 137.123 23.8599 137.025 23.5363 136.978C23.4121 136.96 23.2835 136.955 23.1505 136.963C23.0175 136.966 22.9067 136.972 22.818 136.982L22.419 136.709L22.5985 134.289L25.1723 134.662V135.522L23.4764 135.276L23.3899 136.204C23.4653 136.202 23.5451 136.2 23.6294 136.199C23.718 136.194 23.84 136.202 23.9951 136.225ZM29.3638 137.669C29.3638 138.054 29.3328 138.394 29.2707 138.69C29.2131 138.986 29.1178 139.232 28.9847 139.428C28.8562 139.62 28.6855 139.757 28.4727 139.838C28.2643 139.919 28.0071 139.938 27.7012 139.894C27.3199 139.839 27.0073 139.695 26.7635 139.462C26.5196 139.23 26.3379 138.921 26.2182 138.536C26.1029 138.152 26.0452 137.703 26.0452 137.187C26.0452 136.668 26.0984 136.232 26.2049 135.88C26.3113 135.528 26.4864 135.271 26.7302 135.11C26.9741 134.948 27.2977 134.896 27.7012 134.955C28.0825 135.01 28.3951 135.154 28.6389 135.386C28.8828 135.614 29.0646 135.923 29.1843 136.312C29.304 136.697 29.3638 137.149 29.3638 137.669ZM27.0428 137.332C27.0428 137.695 27.0628 138.003 27.1027 138.255C27.1426 138.502 27.2091 138.696 27.3022 138.835C27.3997 138.97 27.5327 139.05 27.7012 139.074C27.8697 139.098 28.0005 139.057 28.0936 138.949C28.1911 138.843 28.2598 138.671 28.2998 138.435C28.3441 138.195 28.3663 137.891 28.3663 137.524C28.3663 137.157 28.3441 136.849 28.2998 136.6C28.2598 136.348 28.1911 136.155 28.0936 136.02C28.0005 135.881 27.8697 135.799 27.7012 135.774C27.5327 135.75 27.3997 135.793 27.3022 135.905C27.2091 136.012 27.1426 136.186 27.1027 136.427C27.0628 136.663 27.0428 136.965 27.0428 137.332ZM31.8662 137.702L33.1231 137.884V138.603L31.8662 138.421V139.685L31.1546 139.581V138.318L29.8976 138.136V137.417L31.1546 137.599V136.322L31.8662 136.425V137.702ZM36.7345 141.136L35.7436 140.993V136.195L38.4636 136.589V137.422L36.7345 137.172V138.408L38.3439 138.641V139.475L36.7345 139.241V141.136ZM42.1269 141.918L39.3935 141.522V136.724L42.1269 137.12V137.953L40.3978 137.703V138.758L42.0072 138.991V139.824L40.3978 139.591V140.828L42.1269 141.078V141.918ZM46.0212 142.483L45.6754 141.29L43.9462 141.04L43.6004 142.132L42.5164 141.975L44.1923 137.399L45.4227 137.578L47.1052 142.64L46.0212 142.483ZM45.0901 139.237C45.068 139.157 45.0391 139.057 45.0037 138.935C44.9682 138.813 44.9327 138.69 44.8973 138.563C44.8618 138.437 44.833 138.328 44.8108 138.235C44.7886 138.321 44.7576 138.429 44.7177 138.558C44.6822 138.682 44.6468 138.803 44.6113 138.918C44.5803 139.03 44.5559 139.11 44.5381 139.157L44.199 140.223L45.436 140.402L45.0901 139.237ZM49.0679 142.925L48.0637 142.779V138.828L46.7735 138.641V137.794L50.3581 138.314V139.16L49.0679 138.973V142.925ZM54.9542 142.085C54.9542 142.416 54.8811 142.706 54.7347 142.953C54.5929 143.197 54.3756 143.376 54.083 143.491C53.7948 143.601 53.429 143.624 52.9857 143.56C52.3561 143.469 51.8773 143.238 51.5492 142.868C51.2211 142.493 51.057 142.039 51.057 141.506V138.415L52.0613 138.561V141.497C52.0613 141.891 52.1411 142.181 52.3007 142.365C52.4603 142.55 52.6975 142.665 53.0123 142.71C53.234 142.742 53.4135 142.73 53.551 142.674C53.6884 142.618 53.7882 142.514 53.8502 142.361C53.9167 142.21 53.95 142.011 53.95 141.764V138.834L54.9542 138.98V142.085ZM57.5004 139.349C57.9305 139.412 58.2852 139.517 58.5645 139.665C58.8438 139.808 59.0522 139.998 59.1896 140.233C59.3271 140.463 59.3958 140.74 59.3958 141.062C59.3958 141.282 59.3537 141.468 59.2694 141.622C59.1896 141.771 59.081 141.895 58.9436 141.991C58.8105 142.084 58.6664 142.155 58.5113 142.204L59.9079 144.496L58.7906 144.334L57.66 142.329L57.1213 142.251V144.092L56.1171 143.947V139.149L57.5004 139.349ZM57.4272 140.172L57.1213 140.128V141.425L57.4472 141.472C57.6689 141.504 57.8484 141.505 57.9859 141.476C58.1233 141.447 58.2231 141.387 58.2852 141.298C58.3472 141.204 58.3783 141.085 58.3783 140.941C58.3783 140.789 58.3428 140.663 58.2719 140.563C58.2053 140.459 58.1012 140.377 57.9593 140.316C57.8218 140.252 57.6445 140.203 57.4272 140.172ZM63.2408 144.98L60.5074 144.583V139.785L63.2408 140.182V141.015L61.5117 140.764V141.819L63.1211 142.053V142.886L61.5117 142.652V143.889L63.2408 144.14V144.98ZM67.0287 144.198C67.0287 144.481 66.96 144.717 66.8225 144.908C66.6851 145.098 66.4856 145.233 66.224 145.311C65.9668 145.386 65.652 145.396 65.2796 145.342C65.1156 145.319 64.9537 145.284 64.7941 145.238C64.639 145.194 64.4882 145.14 64.3419 145.079C64.2 145.013 64.0648 144.94 63.9362 144.859V143.911C64.1623 144.043 64.3951 144.168 64.6345 144.288C64.8784 144.404 65.12 144.479 65.3594 144.514C65.5235 144.538 65.6543 144.534 65.7518 144.504C65.8538 144.474 65.9269 144.424 65.9713 144.354C66.02 144.285 66.0444 144.201 66.0444 144.103C66.0444 143.982 66.0023 143.873 65.9181 143.775C65.8383 143.678 65.7296 143.584 65.5922 143.493C65.4547 143.397 65.2974 143.293 65.12 143.182C65.0092 143.113 64.8895 143.032 64.7609 142.942C64.6323 142.847 64.5082 142.737 64.3885 142.613C64.2732 142.484 64.1779 142.336 64.1025 142.168C64.0271 142 63.9894 141.807 63.9894 141.587C63.9894 141.3 64.0537 141.065 64.1823 140.883C64.3153 140.696 64.5015 140.566 64.7409 140.493C64.9848 140.421 65.2708 140.409 65.5988 140.456C65.8471 140.492 66.0821 140.555 66.3038 140.646C66.5299 140.737 66.7649 140.854 67.0087 140.997L66.6829 141.742C66.4656 141.621 66.2705 141.524 66.0976 141.449C65.9247 141.375 65.7474 141.325 65.5656 141.298C65.4414 141.28 65.335 141.285 65.2464 141.312C65.1577 141.34 65.089 141.386 65.0402 141.45C64.9959 141.516 64.9737 141.598 64.9737 141.696C64.9737 141.808 65.007 141.909 65.0735 142C65.14 142.085 65.2397 142.174 65.3727 142.265C65.5057 142.356 65.672 142.465 65.8715 142.592C66.1154 142.744 66.3215 142.895 66.49 143.045C66.6629 143.195 66.7959 143.363 66.889 143.546C66.9821 143.73 67.0287 143.947 67.0287 144.198Z" fill="white"/>
<defs>
<filter id="filter0_i_2_1977" x="3.05176e-05" y="0" width="90.5055" height="163.165" filterUnits="userSpaceOnUse" color-interpolation-filters="sRGB">
<feFlood flood-opacity="0" result="BackgroundImageFix"/>
<feBlend mode="normal" in="SourceGraphic" in2="BackgroundImageFix" result="shape"/>
<feColorMatrix in="SourceAlpha" type="matrix" values="0 0 0 0 0 0 0 0 0 0 0 0 0 0 0 0 0 0 127 0" result="hardAlpha"/>
<feOffset/>
<feGaussianBlur stdDeviation="1.91209"/>
<feComposite in2="hardAlpha" operator="arithmetic" k2="-1" k3="1"/>
<feColorMatrix type="matrix" values="0 0 0 0 0.0475347 0 0 0 0 0.167502 0 0 0 0 0.308333 0 0 0 1 0"/>
<feBlend mode="normal" in2="shape" result="effect1_innerShadow_2_1977"/>
</filter>
<linearGradient id="paint0_linear_2_1977" x1="44.9341" y1="0" x2="44.9341" y2="163.165" gradientUnits="userSpaceOnUse">
<stop stop-color="white"/>
<stop offset="1" stop-color="white"/>
</linearGradient>
<linearGradient id="paint1_linear_2_1977" x1="46.1892" y1="1.89023" x2="46.1892" y2="163.16" gradientUnits="userSpaceOnUse">
<stop stop-color="white"/>
<stop offset="1" stop-color="#E9E9E9"/>
</linearGradient>
<linearGradient id="paint2_linear_2_1977" x1="86.6029" y1="97.899" x2="116" y2="99.4286" gradientUnits="userSpaceOnUse">
<stop stop-color="#2F80ED"/>
<stop offset="1" stop-color="#0452BB"/>
</linearGradient>
</defs>
</svg>
