<svg version="1.2" xmlns="http://www.w3.org/2000/svg" viewBox="0 0 20 21" width="20" height="21">
	<title>b_pay_active-svg</title>
	<style>
		.s0 { fill: #e2ecfb } 
		.s1 { fill: #ffffff } 
	</style>
	<path id="Layer" class="s0" d="m10 20.2c-5.4 0-9.8-4.3-9.8-9.7 0-5.4 4.4-9.7 9.8-9.7 5.4 0 9.8 4.3 9.8 9.7 0 5.4-4.4 9.7-9.8 9.7z"/>
	<path id="Layer" fill-rule="evenodd" class="s1" d="m13.1 10.8c0.9 0.5 1.4 1.3 0.9 2.6-0.5 1.6-1.9 1.7-3.7 1.4l-0.4 1.7-1.1-0.2 0.4-1.7q-0.4-0.1-0.8-0.3l-0.5 1.8-1-0.3 0.4-1.7q-0.3-0.1-0.7-0.2l-1.4-0.4 0.5-1.2c0 0 0.8 0.2 0.8 0.2 0.3 0.1 0.4-0.1 0.5-0.2l0.7-2.8h0.1q-0.1 0-0.1 0l0.5-2c0-0.2-0.1-0.5-0.5-0.6 0 0-0.8-0.2-0.8-0.2l0.3-1.1 1.4 0.4q0.4 0.1 0.7 0.1l0.5-1.7 1 0.3-0.4 1.7q0.4 0.1 0.8 0.2l0.5-1.7 1 0.3-0.4 1.7c1.3 0.4 2.3 1.1 2.1 2.4-0.1 0.9-0.7 1.4-1.3 1.5zm-3.8 0l-0.6 2.3c0.7 0.2 3 0.9 3.3-0.4 0.3-1.4-2-1.7-2.7-1.9zm0.8-3.2l-0.5 2.1c0.6 0.2 2.4 0.8 2.7-0.4 0.3-1.3-1.6-1.5-2.2-1.7z"/>
</svg>