<svg width="20" height="20" viewBox="0 0 20 20" fill="none" xmlns="http://www.w3.org/2000/svg">
<path d="M10 20C15.5228 20 20 15.5228 20 10C20 4.47715 15.5228 0 10 0C4.47715 0 0 4.47715 0 10C0 15.5228 4.47715 20 10 20Z" fill="#F7931A"/>
<path d="M14.4931 8.7625C14.6893 7.4525 13.6912 6.74813 12.3274 6.27813L12.7699 4.50313L11.6899 4.23438L11.2587 5.9625C10.9749 5.89125 10.6837 5.825 10.3931 5.75875L10.8274 4.01938L9.74744 3.75L9.30494 5.52437C9.06994 5.47063 8.83869 5.41813 8.61494 5.36188L8.61619 5.35625L7.12619 4.98438L6.83869 6.13813C6.83869 6.13813 7.64056 6.32188 7.62369 6.33313C8.06119 6.4425 8.13994 6.73188 8.12681 6.96188L7.62306 8.98375C7.65306 8.99125 7.69181 9.0025 7.73556 9.01938L7.62119 8.99125L6.91494 11.8238C6.86119 11.9563 6.72556 12.1556 6.41931 12.08C6.43056 12.0956 5.63431 11.8844 5.63431 11.8844L5.09806 13.1206L6.50431 13.4713C6.76556 13.5369 7.02181 13.6056 7.27369 13.67L6.82681 15.465L7.90619 15.7338L8.34869 13.9588C8.64369 14.0381 8.92994 14.1119 9.20994 14.1819L8.76869 15.9494L9.84869 16.2181L10.2956 14.4269C12.1381 14.7756 13.5231 14.635 14.1062 12.9688C14.5762 11.6275 14.0831 10.8531 13.1137 10.3488C13.8199 10.1863 14.3512 9.72188 14.4931 8.7625ZM12.0243 12.2238C11.6912 13.5656 9.43181 12.84 8.69931 12.6581L9.29306 10.28C10.0256 10.4631 12.3737 10.825 12.0243 12.2238ZM12.3587 8.74313C12.0543 9.96375 10.1743 9.34313 9.56494 9.19125L10.1024 7.035C10.7118 7.18688 12.6762 7.47 12.3587 8.74313Z" fill="white"/>
</svg>
