<svg width="60" height="25" viewBox="0 0 60 25" fill="none" xmlns="http://www.w3.org/2000/svg">
<path d="M14.7989 5.3433C14.2329 6.0177 13.3312 6.55209 12.431 6.47382C12.3121 5.56459 12.7606 4.59063 13.2785 3.98699C13.843 3.29905 14.8305 2.80529 15.6313 2.76465C15.7262 3.71452 15.3559 4.64783 14.8004 5.3433H14.7989ZM15.6223 6.65295C14.3142 6.57317 13.1912 7.40412 12.571 7.40412C11.9372 7.40412 10.9874 6.69209 9.95318 6.71618C8.61192 6.73273 7.35797 7.49896 6.67605 8.73183C5.25651 11.184 6.30724 14.8149 7.67108 16.814C8.33795 17.8015 9.13578 18.8839 10.188 18.8538C11.183 18.8131 11.5835 18.1959 12.7832 18.1959C13.998 18.1959 14.3428 18.8538 15.4025 18.8297C16.4909 18.8131 17.1803 17.8422 17.8472 16.8547C18.6074 15.7332 18.9205 14.6343 18.9371 14.5801C18.9205 14.556 16.8281 13.7491 16.813 11.318C16.7965 9.27827 18.4584 8.30732 18.5291 8.25163C17.5958 6.84112 16.1221 6.69209 15.6208 6.65446L15.6223 6.65295ZM23.1731 3.89215V18.7273H25.4537V13.6558H28.6074C31.4841 13.6558 33.5073 11.6567 33.5073 8.77097C33.5073 5.87921 31.5248 3.89366 28.6857 3.89366L23.1731 3.89215ZM25.4537 5.83706H28.0805C30.0555 5.83706 31.1861 6.90284 31.1861 8.77699C31.1861 10.6511 30.0555 11.726 28.0655 11.726H25.4537V5.83706ZM37.6605 18.8372C39.0951 18.8372 40.4198 18.1086 41.025 16.9465H41.0732V18.7273H43.1806V11.3406C43.1806 9.20903 41.4886 7.8226 38.8769 7.8226C36.4623 7.8226 34.6739 9.22558 34.6122 11.1464H36.658C36.8311 10.2296 37.662 9.63353 38.8151 9.63353C40.2106 9.63353 40.9873 10.2914 40.9873 11.5002V12.3146L38.1498 12.4877C35.4989 12.6517 34.0718 13.7416 34.0718 15.6474C34.0718 17.5682 35.547 18.8387 37.662 18.8387L37.6605 18.8372ZM38.2807 17.0805C37.0644 17.0805 36.2892 16.4919 36.2892 15.5917C36.2892 14.6584 37.0343 14.1089 38.4523 14.0216L40.9858 13.8651V14.7035C40.9858 16.093 39.8177 17.0805 38.2717 17.0805H38.2807ZM45.9956 22.7646C48.213 22.7646 49.2577 21.9021 50.1669 19.3069L54.1651 7.97013H51.8529L49.1719 16.7267H49.1237L46.4427 7.97013H44.0598L47.9179 18.7665L47.7132 19.4243C47.3595 20.5307 46.7965 20.9597 45.7924 20.9597C45.6118 20.9597 45.267 20.9372 45.1255 20.9221V22.7029C45.258 22.7406 45.824 22.7571 45.9881 22.7571L45.9956 22.7646Z" fill="white"/>
</svg>
