<svg width="20" height="20" viewBox="0 0 20 20" fill="none" xmlns="http://www.w3.org/2000/svg">
<path d="M15.0778 18.8888H4.92225C4.70847 18.8837 4.49778 18.8366 4.30221 18.7501C4.10665 18.6636 3.93004 18.5394 3.78249 18.3846C3.63493 18.2299 3.51932 18.0475 3.44226 17.8481C3.3652 17.6486 3.32819 17.4359 3.33336 17.2221V6.23877H4.44447V17.2221C4.43917 17.29 4.44734 17.3583 4.46851 17.423C4.48968 17.4877 4.52344 17.5476 4.56784 17.5992C4.61224 17.6509 4.66641 17.6932 4.72723 17.7238C4.78806 17.7544 4.85433 17.7727 4.92225 17.7777H15.0778C15.1457 17.7727 15.212 17.7544 15.2728 17.7238C15.3336 17.6932 15.3878 17.6509 15.4322 17.5992C15.4766 17.5476 15.5104 17.4877 15.5315 17.423C15.5527 17.3583 15.5609 17.29 15.5556 17.2221V6.23877H16.6667V17.2221C16.6719 17.4359 16.6349 17.6486 16.5578 17.8481C16.4807 18.0475 16.3651 18.2299 16.2176 18.3846C16.07 18.5394 15.8934 18.6636 15.6978 18.7501C15.5023 18.8366 15.2916 18.8837 15.0778 18.8888Z" fill="#AEBFDA"/>
<path d="M17.1001 5.00003H2.77785C2.6305 5.00003 2.4892 4.9415 2.38501 4.83731C2.28082 4.73312 2.22229 4.59181 2.22229 4.44447C2.22229 4.29713 2.28082 4.15582 2.38501 4.05163C2.4892 3.94745 2.6305 3.88892 2.77785 3.88892H17.1001C17.2474 3.88892 17.3887 3.94745 17.4929 4.05163C17.5971 4.15582 17.6556 4.29713 17.6556 4.44447C17.6556 4.59181 17.5971 4.73312 17.4929 4.83731C17.3887 4.9415 17.2474 5.00003 17.1001 5.00003Z" fill="#AEBFDA"/>
<path d="M11.6666 7.22229H12.7777V15.5556H11.6666V7.22229Z" fill="#AEBFDA"/>
<path d="M7.22229 7.22229H8.3334V15.5556H7.22229V7.22229Z" fill="#AEBFDA"/>
<path d="M12.7777 3.25553H11.7222V2.2222H8.27772V3.25553H7.22217V2.2222C7.22181 1.93689 7.33122 1.66238 7.52772 1.45553C7.72423 1.24868 7.99277 1.12535 8.27772 1.11108H11.7222C12.0071 1.12535 12.2757 1.24868 12.4722 1.45553C12.6687 1.66238 12.7781 1.93689 12.7777 2.2222V3.25553Z" fill="#AEBFDA"/>
</svg>
