<svg width="20" height="20" viewBox="0 0 20 20" fill="none" xmlns="http://www.w3.org/2000/svg">
<path d="M16.768 14.9141C16.3995 14.0414 15.8649 13.2486 15.1937 12.5801C14.5247 11.9096 13.7321 11.375 12.8598 11.0059C12.8519 11.002 12.8441 11 12.8363 10.9961C14.0531 10.1172 14.8441 8.68555 14.8441 7.07031C14.8441 4.39453 12.6762 2.22656 10.0004 2.22656C7.3246 2.22656 5.15663 4.39453 5.15663 7.07031C5.15663 8.68555 5.94765 10.1172 7.16445 10.998C7.15663 11.002 7.14882 11.0039 7.14101 11.0078C6.26601 11.377 5.48085 11.9062 4.80703 12.582C4.13654 13.2511 3.60196 14.0437 3.23281 14.916C2.87015 15.77 2.67457 16.6856 2.65663 17.6133C2.65611 17.6341 2.65977 17.6549 2.66739 17.6743C2.67501 17.6937 2.68643 17.7114 2.70099 17.7263C2.71556 17.7412 2.73296 17.7531 2.75217 17.7612C2.77139 17.7693 2.79203 17.7734 2.81288 17.7734H3.98476C4.0707 17.7734 4.13906 17.7051 4.14101 17.6211C4.18007 16.1133 4.78554 14.7012 5.85585 13.6309C6.96327 12.5234 8.43398 11.9141 10.0004 11.9141C11.5668 11.9141 13.0375 12.5234 14.1449 13.6309C15.2152 14.7012 15.8207 16.1133 15.8598 17.6211C15.8617 17.707 15.9301 17.7734 16.016 17.7734H17.1879C17.2087 17.7734 17.2294 17.7693 17.2486 17.7612C17.2678 17.7531 17.2852 17.7412 17.2998 17.7263C17.3143 17.7114 17.3258 17.6937 17.3334 17.6743C17.341 17.6549 17.3447 17.6341 17.3441 17.6133C17.3246 16.6797 17.1312 15.7715 16.768 14.9141ZM10.0004 10.4297C9.1039 10.4297 8.26015 10.0801 7.62538 9.44531C6.99062 8.81055 6.64101 7.9668 6.64101 7.07031C6.64101 6.17383 6.99062 5.33008 7.62538 4.69531C8.26015 4.06055 9.1039 3.71094 10.0004 3.71094C10.8969 3.71094 11.7406 4.06055 12.3754 4.69531C13.0101 5.33008 13.3598 6.17383 13.3598 7.07031C13.3598 7.9668 13.0101 8.81055 12.3754 9.44531C11.7406 10.0801 10.8969 10.4297 10.0004 10.4297Z" fill="#89A6D4"/>
<line x1="6.36363" y1="17.0234" x2="13.6364" y2="17.0234" stroke="#89A6D4" stroke-width="1.5"/>
</svg>
