<svg version="1.2" xmlns="http://www.w3.org/2000/svg" viewBox="0 0 61 16" width="61" height="16">
	<title>paypal_active-svg</title>
	<style>
		.s0 { fill: #e2ecfb } 
		.s1 { fill: #ffffff } 
	</style>
	<path id="Layer" fill-rule="evenodd" class="s0" d="m49.5 5.1c0.4 0.5 0.5 1.2 0.4 2.1q-0.5 3.1-3.8 3.1h-1c-0.3 0-0.5 0.2-0.5 0.4l-0.4 2.4q0 0.2-0.3 0.2h-1.7q-0.3 0-0.3-0.2l1.4-8.4c0.1-0.2 0.3-0.3 0.5-0.3h3.2c1 0 1.9 0.2 2.5 0.7zm-2.3 1.5c-0.3-0.4-0.9-0.4-1.4-0.4h-0.2c-0.2 0-0.3 0.1-0.3 0.2l-0.4 2.2h0.6c0.8 0 1.7 0 1.9-1.1 0-0.5 0-0.8-0.2-0.9z"/>
	<path id="Layer" fill-rule="evenodd" class="s0" d="m26.1 5.1c0.4 0.5 0.6 1.2 0.4 2.1q-0.4 3.1-3.7 3.1h-1.1c-0.3 0-0.4 0.2-0.4 0.4l-0.4 2.3c-0.1 0.2-0.3 0.3-0.5 0.3h-1.5q-0.3 0-0.3-0.2l1.3-8.4c0.1-0.2 0.3-0.3 0.5-0.3h3.2c1.2 0 1.9 0.2 2.5 0.7zm-2.2 1.5c-0.3-0.4-0.8-0.4-1.4-0.4h-0.2c-0.2 0-0.3 0.1-0.3 0.2l-0.4 2.2h0.5c0.9 0 1.7 0 1.9-1.1 0.1-0.5 0-0.8-0.1-0.9z"/>
	<path id="Layer" fill-rule="evenodd" class="s0" d="m33.8 7.7l-0.8 5.3c-0.1 0.2-0.3 0.3-0.5 0.3h-1.4q-0.3 0-0.3-0.2l0.1-0.5c0 0-0.8 0.8-2.2 0.8-0.9 0-1.5-0.1-2-0.7-0.5-0.6-0.8-1.4-0.6-2.4 0.3-1.8 1.8-3.1 3.5-3.1 0.8 0 1.5 0.2 1.9 0.7l0.1 0.1v-0.4c0-0.1 0.2-0.2 0.3-0.2h1.6c0.1 0 0.2 0.2 0.3 0.3zm-2.9 1.6c-0.3-0.2-0.6-0.4-1.1-0.4-0.8 0-1.6 0.7-1.7 1.5q0 0.7 0.3 1.1c0.2 0.2 0.6 0.4 1.1 0.4 0.9 0 1.6-0.6 1.8-1.5 0-0.4-0.1-0.8-0.4-1.1z"/>
	<path id="Layer" fill-rule="evenodd" class="s0" d="m57.1 7.7l-0.9 5.3c-0.1 0.2-0.2 0.3-0.4 0.3h-1.5q-0.3 0-0.3-0.2l0.1-0.5c0 0-0.7 0.8-2.1 0.8-0.9 0-1.6-0.1-2.1-0.7-0.4-0.6-0.7-1.4-0.5-2.4 0.3-1.8 1.8-3.1 3.5-3.1 0.8 0 1.4 0.2 1.8 0.7l0.1 0.1 0.1-0.4c0-0.1 0.2-0.2 0.3-0.2h1.5c0.2 0 0.3 0.2 0.4 0.3zm-3 1.6c-0.2-0.2-0.5-0.4-1-0.4-0.9 0-1.6 0.7-1.7 1.5q0 0.7 0.3 1.1c0.2 0.2 0.5 0.4 1 0.4 1 0 1.6-0.6 1.8-1.5 0.1-0.4 0-0.8-0.4-1.1z"/>
	<path id="Layer" class="s0" d="m41.8 7.4h-1.7c-0.2 0-0.3 0.1-0.3 0.2l-2.1 3.2-1-3c-0.1-0.2-0.2-0.3-0.5-0.3h-1.5c-0.2 0-0.3 0.2-0.3 0.4l1.7 5-1.6 2.2c-0.1 0.2 0 0.5 0.2 0.5h1.5c0.2 0 0.3-0.1 0.4-0.2l5.2-7.4c0.3-0.3 0.1-0.6 0-0.6z"/>
	<path id="Layer" class="s0" d="m58.5 4.6l-1.3 8.6q0 0.2 0.3 0.2h1.3c0.2 0 0.4-0.1 0.5-0.3l1.3-8.4q0-0.2-0.3-0.2h-1.5c-0.1-0.1-0.2 0-0.3 0.1z"/>
	<path id="Layer" class="s0" d="m11.5 1.5c-0.6-0.7-1.9-1.1-3.6-1.1h-4.8c-0.2 0-0.5 0.3-0.6 0.5l-1.9 12.4c0 0.3 0.2 0.5 0.4 0.5h2.9l0.8-4.6v0.2c0.1-0.3 0.4-0.6 0.6-0.6h1.5c2.7 0 4.8-1.1 5.5-4.3q0-0.1 0-0.2-0.1 0 0 0c0.1-1.3-0.1-2-0.8-2.8z"/>
	<path id="Layer" class="s0" d="m12.2 4.3q0 0.1 0 0.2c-0.7 3.3-2.8 4.3-5.5 4.3h-1.5c-0.2 0-0.5 0.3-0.6 0.6l-1 5.7c0 0.2 0.1 0.4 0.4 0.4h2.5c0.3 0 0.6-0.2 0.6-0.4v-0.1l0.4-3v-0.2c0-0.3 0.3-0.4 0.6-0.4h0.4c2.4 0 4.3-1 4.8-3.8 0.1-1.2 0-2.2-0.5-2.9-0.1-0.2-0.3-0.3-0.6-0.4z"/>
	<path id="Layer" class="s1" d="m11.5 4c-0.1 0-0.2-0.1-0.2-0.1-0.1 0-0.2 0-0.3-0.1-0.4-0.1-0.8-0.1-1.3-0.1h-3.7c-0.1 0-0.2 0-0.3 0.1-0.2 0.1-0.3 0.3-0.3 0.5l-0.7 4.9v0.2c0.1-0.3 0.4-0.6 0.6-0.6h1.5c2.7 0 4.8-1.1 5.5-4.3 0 0 0-0.1 0.1-0.2-0.2-0.1-0.3-0.2-0.5-0.2-0.3-0.1-0.3-0.1-0.4-0.1z"/>
</svg>