<svg width="18" height="22" viewBox="0 0 18 22" fill="none" xmlns="http://www.w3.org/2000/svg">
<path d="M9 18.5C4.05 18.5 0 14.45 0 9.5C0 4.55 4.05 0.5 9 0.5C13.95 0.5 18 4.55 18 9.5C18 14.45 15.1 19.75 9 21.5V18.5Z" fill="#4CAF50"/>
<path d="M7.99994 7V10.5C7.99994 12.15 6.64994 13.5 4.99994 13.5V12C5.84994 12 6.49994 11.35 6.49994 10.5H4.49994C4.24994 10.5 3.99994 10.25 3.99994 10V7C3.99994 6.75 4.24994 6.5 4.49994 6.5H7.49994C7.74994 6.5 7.99994 6.75 7.99994 7ZM13.4999 6.5H10.4999C10.2499 6.5 9.99994 6.75 9.99994 7V10C9.99994 10.25 10.2499 10.5 10.4999 10.5H12.4999C12.4999 11.35 11.8499 12 10.9999 12V13.5C12.6499 13.5 13.9999 12.15 13.9999 10.5V7C13.9999 6.75 13.7499 6.5 13.4999 6.5Z" fill="white"/>
</svg>
