<svg width="24" height="24" viewBox="0 0 24 24" fill="none" xmlns="http://www.w3.org/2000/svg">
<path d="M12 19.5C7.05 19.5 3 15.45 3 10.5C3 5.55 7.05 1.5 12 1.5C16.95 1.5 21 5.55 21 10.5C21 15.45 18.1 20.75 12 22.5V19.5Z" fill="#4CAF50"/>
<path d="M10.9999 8V11.5C10.9999 13.15 9.64994 14.5 7.99994 14.5V13C8.84994 13 9.49994 12.35 9.49994 11.5H7.49994C7.24994 11.5 6.99994 11.25 6.99994 11V8C6.99994 7.75 7.24994 7.5 7.49994 7.5H10.4999C10.7499 7.5 10.9999 7.75 10.9999 8ZM16.4999 7.5H13.4999C13.2499 7.5 12.9999 7.75 12.9999 8V11C12.9999 11.25 13.2499 11.5 13.4999 11.5H15.4999C15.4999 12.35 14.8499 13 13.9999 13V14.5C15.6499 14.5 16.9999 13.15 16.9999 11.5V8C16.9999 7.75 16.7499 7.5 16.4999 7.5Z" fill="white"/>
</svg>
