<svg width="20" height="12" viewBox="0 0 20 12" fill="none" xmlns="http://www.w3.org/2000/svg">
<path fill-rule="evenodd" clip-rule="evenodd" d="M8.47401 4.79291C8.47401 4.78436 8.46546 3.44083 9.59887 3.44983C10.739 3.45883 10.7237 4.79291 10.7237 4.79291V10.6489C10.7237 10.6489 10.5775 11.5506 9.59347 11.5488C8.58829 11.547 8.46591 10.6489 8.46591 10.6489L8.47401 4.79291ZM0.375 1.91732C0.375 1.91732 0.410096 0.746561 1.49986 0.750161C2.54148 0.75376 2.62112 1.94116 2.62112 1.94116L2.62472 6.1495L4.87445 3.89977C4.87445 3.89977 5.80493 3.14837 6.44925 3.89977C7.13542 4.69978 6.22428 5.69955 6.22428 5.69955L4.87445 7.04939C4.87445 7.04939 7.12417 10.1963 7.12417 10.424C7.12417 11.0494 6.61618 11.5497 5.99931 11.5497C5.58491 11.5497 5.06747 11.4386 4.87445 11.0989L3.07467 8.39922L2.62472 8.84916V10.6489C2.62472 10.6489 2.47354 11.5479 1.49986 11.5493C0.446541 11.5511 0.375 10.6489 0.375 10.6489V1.91732ZM12.5235 1.91732C12.5235 1.91732 12.5586 0.746561 13.6484 0.750161C14.69 0.75376 14.7696 1.94116 14.7696 1.94116L14.7732 6.1495L17.023 3.89977C17.023 3.89977 17.9534 3.14837 18.5978 3.89977C19.2839 4.69978 18.3728 5.69955 18.3728 5.69955L17.023 7.04939C17.023 7.04939 19.2727 10.1963 19.2727 10.424C19.2727 11.0494 18.7647 11.5497 18.1478 11.5497C17.7334 11.5497 17.216 11.4386 17.023 11.0989L15.2232 8.39922L14.7732 8.84916V10.6489C14.7732 10.6489 14.6221 11.5479 13.6484 11.5493C12.595 11.5511 12.5235 10.6489 12.5235 10.6489V1.91732Z" fill="#5DCD11"/>
</svg>
