<svg width="24" height="24" viewBox="0 0 24 24" fill="none" xmlns="http://www.w3.org/2000/svg">
<g clip-path="url(#clip0_2_1808)">
<path fill-rule="evenodd" clip-rule="evenodd" d="M8.47401 10.7929C8.47401 10.7844 8.46546 9.44083 9.59887 9.44983C10.739 9.45883 10.7237 10.7929 10.7237 10.7929V16.6489C10.7237 16.6489 10.5775 17.5506 9.59347 17.5488C8.58829 17.547 8.46591 16.6489 8.46591 16.6489L8.47401 10.7929ZM0.375 7.91732C0.375 7.91732 0.410096 6.74656 1.49986 6.75016C2.54148 6.75376 2.62112 7.94116 2.62112 7.94116L2.62472 12.1495L4.87445 9.89977C4.87445 9.89977 5.80493 9.14837 6.44925 9.89977C7.13542 10.6998 6.22428 11.6996 6.22428 11.6996L4.87445 13.0494C4.87445 13.0494 7.12417 16.1963 7.12417 16.424C7.12417 17.0494 6.61618 17.5497 5.99931 17.5497C5.58491 17.5497 5.06747 17.4386 4.87445 17.0989L3.07467 14.3992L2.62472 14.8492V16.6489C2.62472 16.6489 2.47354 17.5479 1.49986 17.5493C0.446541 17.5511 0.375 16.6489 0.375 16.6489V7.91732ZM12.5235 7.91732C12.5235 7.91732 12.5586 6.74656 13.6484 6.75016C14.69 6.75376 14.7696 7.94116 14.7696 7.94116L14.7732 12.1495L17.023 9.89977C17.023 9.89977 17.9534 9.14837 18.5978 9.89977C19.2839 10.6998 18.3728 11.6996 18.3728 11.6996L17.023 13.0494C17.023 13.0494 19.2727 16.1963 19.2727 16.424C19.2727 17.0494 18.7647 17.5497 18.1478 17.5497C17.7334 17.5497 17.216 17.4386 17.023 17.0989L15.2232 14.3992L14.7732 14.8492V16.6489C14.7732 16.6489 14.6221 17.5479 13.6484 17.5493C12.595 17.5511 12.5235 16.6489 12.5235 16.6489V7.91732Z" fill="#5DCD11"/>
</g>
<defs>
<clipPath id="clip0_2_1808">
<rect width="24" height="24" fill="white"/>
</clipPath>
</defs>
</svg>
