<svg width="18" height="18" viewBox="0 0 18 18" fill="none" xmlns="http://www.w3.org/2000/svg">
<rect x="6.10352e-05" y="-6.10352e-05" width="18" height="18" rx="4" fill="url(#paint0_linear_2_1797)"/>
<path d="M15.2745 9.08434C15.2465 8.3256 14.6094 7.73303 13.8484 7.75884C13.5111 7.77052 13.1903 7.90867 12.9467 8.14048C11.874 7.40989 10.614 7.0093 9.31884 6.98129L9.9301 4.04203L11.9466 4.46597C12.0028 4.98356 12.4666 5.35819 12.9842 5.30203C13.5018 5.24572 13.8764 4.7821 13.8202 4.2645C13.7639 3.74691 13.3003 3.37214 12.7827 3.42845C12.4852 3.45893 12.2183 3.63224 12.0706 3.88973L9.76146 3.42845C9.60463 3.39329 9.44766 3.49162 9.4125 3.65092V3.65559L8.71693 6.92498C7.40544 6.94613 6.1291 7.34892 5.04228 8.08431C4.48967 7.56439 3.61845 7.5902 3.09852 8.14529C2.57859 8.6979 2.60428 9.56912 3.15936 10.089C3.26703 10.1898 3.39117 10.2765 3.52932 10.3373C3.51999 10.4755 3.51999 10.6136 3.52932 10.7519C3.52932 12.862 5.98848 14.5787 9.02139 14.5787C12.0543 14.5787 14.5135 12.8643 14.5135 10.7519C14.5228 10.6136 14.5228 10.4755 14.5135 10.3373C14.9866 10.1009 15.284 9.61375 15.2745 9.08434ZM5.85266 10.0282C5.85266 9.50828 6.27659 9.08434 6.79652 9.08434C7.31645 9.08434 7.74038 9.50828 7.74038 10.0282C7.74038 10.5481 7.31645 10.9721 6.79652 10.9721C6.27426 10.9674 5.85266 10.5481 5.85266 10.0282ZM11.3259 12.6185C10.6562 13.122 9.83644 13.3796 8.99804 13.3446C8.15951 13.3796 7.33979 13.122 6.67004 12.6185C6.58105 12.5107 6.59739 12.3492 6.7052 12.2601C6.79886 12.1829 6.93234 12.1829 7.02833 12.2601C7.59509 12.6747 8.28599 12.8855 8.98857 12.8527C9.69114 12.8901 10.3845 12.6887 10.9583 12.2789C11.0613 12.1782 11.2299 12.1806 11.3306 12.2836C11.4314 12.3867 11.429 12.5552 11.3259 12.656V12.6185ZM11.1573 11.0049C10.6373 11.0049 10.2135 10.581 10.2135 10.061C10.2135 9.5411 10.6373 9.11717 11.1573 9.11717C11.6772 9.11717 12.1011 9.5411 12.1011 10.061C12.1223 10.581 11.717 11.0189 11.1971 11.0399C11.1808 11.0399 11.1667 11.0399 11.1503 11.0399L11.1573 11.0049Z" fill="white"/>
<defs>
<linearGradient id="paint0_linear_2_1797" x1="9.00006" y1="-6.10352e-05" x2="9.00006" y2="17.9999" gradientUnits="userSpaceOnUse">
<stop stop-color="#FF4501"/>
<stop offset="1" stop-color="#EF3E01"/>
</linearGradient>
</defs>
</svg>
