<svg width="18" height="18" viewBox="0 0 18 18" fill="none" xmlns="http://www.w3.org/2000/svg">
<path d="M14.0092 18H3.99082C1.78672 18 0 16.2133 0 14.0092V3.99082C0 1.78672 1.78672 0 3.99082 0H14.0092C16.2133 0 18.0001 1.78672 18.0001 3.99082V14.0092C18 16.2133 16.2133 18 14.0092 18Z" fill="#41A0D7"/>
<path d="M8.84381 3.93748C5.8247 3.93748 3.37717 6.19169 3.37717 8.97229C3.37717 10.4386 4.05797 11.7583 5.14407 12.6785L5.28723 14.7066C5.29143 14.7658 5.32575 14.8187 5.37821 14.8466C5.43067 14.8745 5.49371 14.8735 5.54516 14.844L7.33888 13.8138C7.81701 13.9397 8.32184 14.0072 8.84381 14.0072C11.8629 14.0072 14.3105 11.7529 14.3105 8.97229C14.3104 6.19163 11.8629 3.93742 8.84381 3.93748Z" fill="white"/>
<path d="M4.80443 16.4597L4.53922 15.5699L4.90901 15.4597L5.03739 15.8905L5.43098 15.6733L5.61742 16.0112L4.80443 16.4597Z" fill="#C8E6EB"/>
<path d="M6.10781 15.7407L5.92137 15.4029L7.12605 14.7382L7.19844 14.7552C7.22951 14.7626 7.26081 14.7697 7.29211 14.7766L7.22649 15.074L7.24743 15.112L7.21395 15.1304L7.20885 15.1534C7.20012 15.1515 7.1915 15.1496 7.18276 15.1477L6.10781 15.7407ZM8.84401 15.3308C8.48581 15.3308 8.12592 15.3055 7.77443 15.2558L7.82852 14.8737C8.27479 14.9369 8.73702 14.9581 9.1889 14.9368L9.20715 15.3222C9.08705 15.3278 8.96483 15.3308 8.84401 15.3308ZM9.77945 15.2735L9.73225 14.8906C10.1847 14.8348 10.6316 14.7354 11.0604 14.5953L11.1803 14.9621C10.7279 15.1099 10.2565 15.2147 9.77945 15.2735ZM4.3759 15.0222L3.97604 13.6802L4.34583 13.57L4.74569 14.9119L4.3759 15.0222ZM11.7194 14.7623L11.5711 14.406C11.992 14.2308 12.3945 14.0137 12.7677 13.7607L12.9842 14.0802C12.5896 14.3477 12.1641 14.5771 11.7194 14.7623ZM13.4473 13.7374L13.2051 13.437C13.5608 13.1503 13.8838 12.8278 14.1649 12.4786L14.4655 12.7206C14.167 13.0913 13.8244 13.4334 13.4473 13.7374ZM3.74789 13.2989C3.40144 12.9595 3.0943 12.585 2.83502 12.1858L3.15868 11.9757C3.40256 12.3512 3.69162 12.7037 4.01792 13.0233L3.74789 13.2989ZM14.8072 12.2557L14.4863 12.0413C14.7393 11.6625 14.9469 11.2578 15.1034 10.8387L15.4649 10.9735C15.2981 11.4207 15.0767 11.852 14.8072 12.2557ZM2.54293 11.6876C2.31708 11.2584 2.14313 10.8053 2.02578 10.341L2.39994 10.2464C2.50979 10.6813 2.67283 11.1057 2.88446 11.5079L2.54293 11.6876ZM15.6409 10.4231L15.2681 10.3233C15.3846 9.88823 15.4484 9.43871 15.4578 8.98706L15.8436 8.99512C15.8335 9.47779 15.7653 9.95816 15.6409 10.4231ZM1.91129 9.7739C1.86594 9.47583 1.84293 9.17092 1.84293 8.86758C1.84293 8.68898 1.85093 8.50859 1.86661 8.33162L2.25102 8.36571C2.23629 8.53149 2.22879 8.70029 2.22879 8.86758C2.22879 9.15155 2.25029 9.43697 2.29273 9.7159L1.91129 9.7739ZM15.4434 8.446C15.4099 7.99648 15.322 7.55082 15.182 7.1214L15.5489 7.00175C15.6984 7.46068 15.7925 7.93696 15.8283 8.41739L15.4434 8.446ZM2.32486 7.82986L1.94561 7.75881C2.0339 7.28729 2.17969 6.82444 2.37889 6.38309L2.7306 6.54182C2.54405 6.95511 2.40756 7.38851 2.32486 7.82986ZM14.9898 6.6151C14.8115 6.20483 14.5831 5.81118 14.3111 5.44519L14.6208 5.21497C14.9103 5.60459 15.1535 6.02388 15.3436 6.46114L14.9898 6.6151ZM2.97628 6.05887L2.64086 5.86818C2.87617 5.45421 3.16143 5.06257 3.48861 4.70414L3.77359 4.96432C3.46577 5.30153 3.19743 5.66981 2.97628 6.05887ZM13.9684 5.02434C13.6703 4.68931 13.3325 4.38261 12.9642 4.11286L13.1921 3.80163C13.5824 4.08739 13.9405 4.41251 14.2567 4.76786L13.9684 5.02434ZM4.15699 4.57913L3.89536 4.29549C4.24534 3.97267 4.6331 3.68338 5.04797 3.43581L5.24572 3.76725C4.85369 4.00111 4.48737 4.27427 4.15699 4.57913ZM12.5125 3.80969C12.1282 3.57399 11.7164 3.37506 11.2884 3.21863L11.4209 2.85623C11.873 3.02145 12.3081 3.23162 12.7142 3.48077L12.5125 3.80969ZM5.72396 3.5073L5.55353 3.16119C5.98105 2.95068 6.43337 2.78109 6.89795 2.65731L6.99733 3.03018C6.55727 3.14742 6.1288 3.30799 5.72396 3.5073ZM10.7699 3.05179C10.3352 2.93052 9.88443 2.85041 9.42998 2.81368L9.46099 2.42905C9.93996 2.46768 10.4153 2.55216 10.8736 2.68009L10.7699 3.05179ZM7.52899 2.91026L7.45867 2.53083C7.91172 2.44685 8.37775 2.40424 8.84401 2.40424L8.8869 2.40436L8.88545 2.79022L8.84407 2.79011C8.40121 2.79016 7.9588 2.83064 7.52899 2.91026Z" fill="#C8E6EB"/>
</svg>
