<svg width="24" height="24" viewBox="0 0 24 24" fill="none" xmlns="http://www.w3.org/2000/svg">
<path d="M12 3.4283C9.7267 3.4283 7.54653 4.33136 5.93907 5.93881C4.33162 7.54627 3.42856 9.72644 3.42856 11.9997C3.42856 14.273 4.33162 16.4532 5.93907 18.0606C7.54653 19.6681 9.7267 20.5712 12 20.5712C14.2733 20.5712 16.4534 19.6681 18.0609 18.0606C19.6684 16.4532 20.5714 14.273 20.5714 11.9997C20.5714 9.72644 19.6684 7.54627 18.0609 5.93881C16.4534 4.33136 14.2733 3.4283 12 3.4283V3.4283Z" fill="#03A9F4"/>
<path d="M16.0714 11.1429C14.7643 11.1429 13.5107 11.6621 12.5864 12.5864C11.6621 13.5107 11.1429 14.7643 11.1429 16.0714C11.1429 17.3786 11.6621 18.6322 12.5864 19.5565C13.5107 20.4807 14.7643 21 16.0714 21C17.3786 21 18.6322 20.4807 19.5565 19.5565C20.4807 18.6322 21 17.3786 21 16.0714C21 14.7643 20.4807 13.5107 19.5565 12.5864C18.6322 11.6621 17.3786 11.1429 16.0714 11.1429V11.1429ZM7.92857 3C7.28134 3 6.64045 3.12748 6.04249 3.37517C5.44453 3.62285 4.90121 3.98588 4.44355 4.44355C3.98589 4.90121 3.62285 5.44453 3.37517 6.04249C3.12748 6.64045 3 7.28134 3 7.92857C3 8.5758 3.12748 9.21669 3.37517 9.81465C3.62285 10.4126 3.98589 10.9559 4.44355 11.4136C4.90121 11.8713 5.44453 12.2343 6.04249 12.482C6.64045 12.7297 7.28134 12.8571 7.92857 12.8571C8.5758 12.8571 9.21669 12.7297 9.81465 12.482C10.4126 12.2343 10.9559 11.8713 11.4136 11.4136C11.8713 10.9559 12.2343 10.4126 12.482 9.81465C12.7297 9.21669 12.8571 8.5758 12.8571 7.92857C12.8571 7.28134 12.7297 6.64045 12.482 6.04249C12.2343 5.44453 11.8713 4.90121 11.4136 4.44355C10.9559 3.98588 10.4126 3.62285 9.81465 3.37517C9.21669 3.12748 8.5758 3 7.92857 3V3Z" fill="#03A9F4"/>
<path d="M12.2579 17.1428C9.42847 17.1428 8.14276 15.7281 8.14276 14.6566C8.14276 14.0991 8.52762 13.7142 9.08519 13.7142C10.2856 13.7142 9.98605 15.4722 12.2575 15.4722C13.4142 15.4722 14.057 14.8293 14.057 14.1865C14.057 13.7999 13.8848 13.3713 13.1146 13.1571L10.5852 12.5142C8.57133 11.9999 8.18648 10.8848 8.18648 9.81334C8.18648 7.62848 10.2003 6.85706 12.0856 6.85706C13.8432 6.85706 15.857 7.79948 15.857 9.0852C15.857 9.64277 15.4285 9.98605 14.8709 9.98605C13.8432 9.98605 14.0138 8.52805 11.9562 8.52805C10.9285 8.52805 10.3289 9.00034 10.3289 9.68648C10.3289 10.3713 11.1423 10.5856 11.8709 10.7579L13.7575 11.1865C15.8133 11.6566 16.2856 12.8571 16.2856 14.0138C16.2419 15.8133 14.9562 17.1428 12.2579 17.1428Z" fill="white"/>
</svg>
