<svg width="18" height="18" viewBox="0 0 18 18" fill="none" xmlns="http://www.w3.org/2000/svg">
<path d="M8.99998 0.428299C6.7267 0.428299 4.54653 1.33136 2.93907 2.93881C1.33162 4.54627 0.428558 6.72644 0.428558 8.99973C0.428558 11.273 1.33162 13.4532 2.93907 15.0606C4.54653 16.6681 6.7267 17.5712 8.99998 17.5712C11.2733 17.5712 13.4534 16.6681 15.0609 15.0606C16.6684 13.4532 17.5714 11.273 17.5714 8.99973C17.5714 6.72644 16.6684 4.54627 15.0609 2.93881C13.4534 1.33136 11.2733 0.428299 8.99998 0.428299Z" fill="#03A9F4"/>
<path d="M13.0714 8.14286C11.7643 8.14286 10.5107 8.66212 9.5864 9.5864C8.66212 10.5107 8.14286 11.7643 8.14286 13.0714C8.14286 14.3786 8.66212 15.6322 9.5864 16.5565C10.5107 17.4807 11.7643 18 13.0714 18C14.3786 18 15.6322 17.4807 16.5565 16.5565C17.4807 15.6322 18 14.3786 18 13.0714C18 11.7643 17.4807 10.5107 16.5565 9.5864C15.6322 8.66212 14.3786 8.14286 13.0714 8.14286ZM4.92857 0C4.28134 -9.64447e-09 3.64045 0.127481 3.04249 0.375165C2.44453 0.622849 1.90121 0.985885 1.44355 1.44355C0.985885 1.90121 0.622849 2.44453 0.375165 3.04249C0.127481 3.64045 0 4.28134 0 4.92857C0 5.5758 0.127481 6.21669 0.375165 6.81465C0.622849 7.41262 0.985885 7.95594 1.44355 8.4136C1.90121 8.87126 2.44453 9.23429 3.04249 9.48198C3.64045 9.72966 4.28134 9.85714 4.92857 9.85714C5.5758 9.85714 6.21669 9.72966 6.81465 9.48198C7.41262 9.23429 7.95594 8.87126 8.4136 8.4136C8.87126 7.95594 9.23429 7.41262 9.48198 6.81465C9.72966 6.21669 9.85714 5.5758 9.85714 4.92857C9.85714 4.28134 9.72966 3.64045 9.48198 3.04249C9.23429 2.44453 8.87126 1.90121 8.4136 1.44355C7.95594 0.985885 7.41262 0.622849 6.81465 0.375165C6.21669 0.127481 5.5758 -9.64447e-09 4.92857 0Z" fill="#03A9F4"/>
<path d="M9.2579 14.1428C6.42847 14.1428 5.14276 12.7281 5.14276 11.6566C5.14276 11.0991 5.52762 10.7142 6.08519 10.7142C7.28562 10.7142 6.98605 12.4722 9.25747 12.4722C10.4142 12.4722 11.057 11.8293 11.057 11.1865C11.057 10.7999 10.8848 10.3713 10.1146 10.1571L7.58519 9.5142C5.57133 8.99991 5.18648 7.88477 5.18648 6.81334C5.18648 4.62848 7.20033 3.85706 9.08562 3.85706C10.8432 3.85706 12.857 4.79948 12.857 6.0852C12.857 6.64277 12.4285 6.98605 11.8709 6.98605C10.8432 6.98605 11.0138 5.52805 8.95619 5.52805C7.92848 5.52805 7.3289 6.00034 7.3289 6.68648C7.3289 7.37134 8.14233 7.58562 8.8709 7.75791L10.7575 8.18648C12.8133 8.65662 13.2856 9.85705 13.2856 11.0138C13.2419 12.8133 11.9562 14.1428 9.2579 14.1428Z" fill="white"/>
</svg>
