<svg width="24" height="24" viewBox="0 0 24 24" fill="none" xmlns="http://www.w3.org/2000/svg">
<path d="M17.0059 20.9904L7.01117 20.9999C4.81233 21.0019 3.01178 19.2048 3.00928 17.006L2.99979 7.01128C2.99779 4.81244 4.79484 3.01189 6.99368 3.00939L16.9884 2.99989C19.1872 2.9979 20.9878 4.79495 20.9903 6.99379L20.9998 16.9885C21.0023 19.1878 19.2047 20.9884 17.0059 20.9904Z" fill="url(#paint0_linear_2_1754)"/>
<path opacity="0.07" d="M7.30662 10.2525C7.22263 10.2525 7.13562 10.272 7.05513 10.3125C6.92263 10.3785 6.82363 10.4925 6.77663 10.633C6.70113 10.8595 6.77863 11.108 6.96963 11.251L8.80762 12.399L8.73612 12.59C8.70312 12.6795 7.90112 14.7915 6.38463 15.6185C6.30413 15.6625 6.25263 15.7215 6.24763 15.777C6.24213 15.833 6.28663 15.8835 6.32513 15.9155C6.65313 16.19 6.99213 16.385 7.66762 16.509L7.87213 16.5465L7.87262 16.7545C7.87362 17.0585 7.97013 17.38 8.06013 17.38C8.50663 17.38 9.43562 17.38 10.3641 17.844C10.8791 18.1015 11.6001 18.2555 11.9996 18.2555C12.3991 18.2555 13.1201 18.1015 13.6351 17.844C14.5631 17.38 15.4926 17.38 15.9391 17.38C16.0296 17.38 16.1261 17.0585 16.1266 16.7545L16.1271 16.5465L16.3316 16.509C17.0071 16.3855 17.3461 16.1905 17.6746 15.9155C17.7131 15.8835 17.7576 15.833 17.7521 15.777C17.7466 15.7215 17.6951 15.6625 17.6151 15.6185C16.0991 14.7915 15.2971 12.6795 15.2636 12.59L15.1921 12.399L17.0471 11.239C17.2206 11.1075 17.2981 10.8595 17.2226 10.633C17.1761 10.4925 17.0771 10.379 16.9446 10.3125C16.8126 10.246 16.6626 10.236 16.5216 10.2825L15.2486 10.8035V9.05002C15.2486 7.23202 13.7916 5.75302 12.0006 5.75302C10.2076 5.75302 8.75062 7.23202 8.75062 9.05002V10.804L7.46263 10.2775C7.41413 10.261 7.36112 10.2525 7.30662 10.2525Z" fill="black"/>
<path opacity="0.07" d="M12 18.5054C12.434 18.5054 13.1935 18.3444 13.747 18.0679C14.6225 17.6304 15.5015 17.6304 15.939 17.6304C16.3765 17.6304 16.3765 16.7549 16.3765 16.7549C17.072 16.6279 17.4545 16.4259 17.835 16.1074C18.1005 15.8849 18.0385 15.5649 17.7345 15.3994C16.283 14.6079 15.4975 12.5029 15.4975 12.5029L17.1795 11.4509C17.4565 11.2434 17.569 10.8819 17.46 10.5534C17.3195 10.1319 16.8635 9.90437 16.4425 10.0454L15.499 10.4309V9.04987C15.499 7.11787 13.933 5.50287 12.001 5.50287H11.999C10.067 5.50287 8.50103 7.11787 8.50103 9.04987V10.4314L7.55753 10.0459C7.13603 9.90487 6.68053 10.1324 6.54003 10.5539C6.43053 10.8819 6.54353 11.2434 6.82053 11.4514L8.50253 12.5034C8.50253 12.5034 7.71753 14.6079 6.26553 15.3999C5.96154 15.5654 5.89953 15.8859 6.16503 16.1079C6.54503 16.4264 6.92803 16.6284 7.62353 16.7554C7.62353 16.7554 7.62353 17.6309 8.06103 17.6309C8.49853 17.6309 9.37753 17.6309 10.253 18.0684C10.8065 18.3444 11.566 18.5054 12 18.5054Z" stroke="black" stroke-width="3"/>
<path d="M12 18.5054C12.434 18.5054 13.1935 18.3444 13.747 18.0679C14.6225 17.6304 15.5015 17.6304 15.939 17.6304C16.3765 17.6304 16.3765 16.7549 16.3765 16.7549C17.072 16.6279 17.4545 16.4259 17.835 16.1074C18.1005 15.8849 18.0385 15.5649 17.7345 15.3994C16.283 14.6079 15.4975 12.5029 15.4975 12.5029L17.1795 11.4509C17.4565 11.2434 17.569 10.8819 17.46 10.5534C17.3195 10.1319 16.8635 9.90437 16.4425 10.0454L15.499 10.4309V9.04987C15.499 7.11787 13.933 5.50287 12.001 5.50287H11.999C10.067 5.50287 8.50103 7.11787 8.50103 9.04987V10.4314L7.55753 10.0459C7.13603 9.90487 6.68053 10.1324 6.54003 10.5539C6.43053 10.8819 6.54353 11.2434 6.82053 11.4514L8.50253 12.5034C8.50253 12.5034 7.71753 14.6079 6.26553 15.3999C5.96154 15.5654 5.89953 15.8859 6.16503 16.1079C6.54503 16.4264 6.92803 16.6284 7.62353 16.7554C7.62353 16.7554 7.62353 17.6309 8.06103 17.6309C8.49853 17.6309 9.37753 17.6309 10.253 18.0684C10.8065 18.3444 11.566 18.5054 12 18.5054Z" fill="white"/>
<defs>
<linearGradient id="paint0_linear_2_1754" x1="10.3014" y1="2.36573" x2="13.6986" y2="21.6346" gradientUnits="userSpaceOnUse">
<stop stop-color="#FEDE00"/>
<stop offset="1" stop-color="#FFD000"/>
</linearGradient>
</defs>
</svg>
