<svg width="18" height="18" viewBox="0 0 18 18" fill="none" xmlns="http://www.w3.org/2000/svg">
<path d="M17.6601 0.975054C17.3531 0.714683 16.8708 0.677429 16.3722 0.877619H16.3714C15.8469 1.08804 1.52656 7.2305 0.943591 7.48145C0.83756 7.5183 -0.0884755 7.86382 0.00691186 8.63347C0.0920645 9.32738 0.836332 9.61477 0.927216 9.64793L4.5679 10.8945C4.80944 11.6986 5.69986 14.665 5.89677 15.2987C6.01959 15.6938 6.21978 16.2129 6.57063 16.3197C6.87849 16.4385 7.18471 16.33 7.38285 16.1744L9.60869 14.1099L13.2019 16.9121L13.2875 16.9633C13.5314 17.0714 13.7652 17.1254 13.9883 17.1254C14.1607 17.1254 14.3261 17.0931 14.4841 17.0284C15.0224 16.8073 15.2378 16.2943 15.2603 16.2362L17.9442 2.2855C18.108 1.54042 17.8804 1.16133 17.6601 0.975054ZM7.77873 11.3932L6.55057 14.6683L5.3224 10.5744L14.7383 3.61479L7.77873 11.3932Z" fill="#2C9AFF"/>
</svg>
