<svg width="18" height="20" viewBox="0 0 18 20" fill="none" xmlns="http://www.w3.org/2000/svg">
<path d="M9.00041 1.04999C7.81286 1.04999 4.19891 1.04999 2.20091 2.87429C1.01111 4.05959 0.450409 5.77229 0.450409 8.24999V9.59999C0.450409 12.0777 1.01111 13.7904 2.21486 14.9892C2.81426 15.5359 3.63146 15.9729 4.63046 16.2748L4.95041 16.3711V18.7687C4.95041 19.05 5.03186 19.05 5.05886 19.05C5.11421 19.05 5.20286 19.0324 5.37116 18.883C5.41166 18.843 5.70866 18.5217 7.15316 16.9035L7.29896 16.7401L7.51721 16.7541C8.00096 16.7842 8.50001 16.8 9.00041 16.8C10.188 16.8 13.8019 16.8 15.7999 14.9752C16.9893 13.7899 17.5504 12.0772 17.5504 9.59999V8.24999C17.5504 5.77229 16.9897 4.05959 15.786 2.86079C13.8019 1.04999 10.188 1.04999 9.00041 1.04999Z" fill="white"/>
<path d="M13.2536 11.7843C12.7536 11.3631 12.5228 11.2358 11.8325 10.8213C11.5449 10.649 11.1066 10.5 10.8767 10.5C10.7196 10.5 10.5315 10.6202 10.4163 10.7354C10.1211 11.0306 10.0244 11.4 9.50687 11.4C9.00062 11.4 8.11637 10.8848 7.48187 10.2188C6.81587 9.58428 6.30062 8.70003 6.30062 8.19378C6.30062 7.67628 6.66332 7.57278 6.95852 7.27713C7.07372 7.16238 7.20062 6.97428 7.20062 6.81723C7.20062 6.58728 7.05167 6.15573 6.87932 5.86818C6.46486 5.17743 6.33797 4.94658 5.91632 4.44708C5.77366 4.27788 5.61122 4.20048 5.44111 4.20003C5.15356 4.19958 4.77601 4.34223 4.52041 4.53258C4.13611 4.81923 3.73426 5.20938 3.62671 5.69538C3.61231 5.76153 3.60376 5.82813 3.60106 5.89473C3.58036 6.40098 3.77926 6.91488 3.99391 7.35003C4.49926 8.37558 5.16796 9.36828 5.89562 10.2548C6.12827 10.5383 6.38162 10.802 6.64397 11.0567C6.89867 11.3186 7.16237 11.5719 7.44587 11.805C8.33237 12.5327 9.32507 13.2014 10.3506 13.7067C10.7817 13.9191 11.2893 14.1144 11.7906 14.1C11.8622 14.0978 11.9337 14.0897 12.0053 14.0739C12.4913 13.9668 12.8814 13.5645 13.1681 13.1802C13.3584 12.9246 13.5011 12.5475 13.5006 12.2595C13.5002 12.0894 13.4228 11.927 13.2536 11.7843ZM13.5006 9.60003C13.2522 9.60003 13.0506 9.39843 13.0506 9.15003V8.70003C13.0506 6.46713 11.2335 4.65003 9.00062 4.65003C8.75222 4.65003 8.55062 4.44843 8.55062 4.20003C8.55062 3.95163 8.75222 3.75003 9.00062 3.75003C11.7299 3.75003 13.9506 5.97078 13.9506 8.70003V9.15003C13.9506 9.39843 13.749 9.60003 13.5006 9.60003ZM10.7367 8.70003C10.5369 8.70003 10.3542 8.56593 10.3016 8.36343C10.1783 7.89048 9.80927 7.52103 9.33812 7.39953C9.09737 7.33698 8.95292 7.09173 9.01502 6.85098C9.07712 6.61068 9.32192 6.46623 9.56357 6.52788C10.3502 6.73173 10.9667 7.34778 11.1723 8.13618C11.2349 8.37693 11.0909 8.62218 10.8506 8.68518C10.8123 8.69508 10.7741 8.70003 10.7367 8.70003Z" fill="#7E57C2"/>
<path d="M12.1502 9.15095C11.9018 9.15095 11.7002 8.94935 11.7002 8.70095C11.7002 7.26635 10.5779 6.08285 9.14508 6.00725C8.89668 5.9942 8.70633 5.78225 8.71938 5.5343C8.73243 5.2859 8.94798 5.0951 9.19233 5.1086C11.1035 5.2094 12.6002 6.78755 12.6002 8.70095C12.6002 8.94935 12.3986 9.15095 12.1502 9.15095Z" fill="#7E57C2"/>
<path d="M9.00023 0.600052C6.97522 0.600052 3.81982 0.786352 1.89742 2.54225C0.538425 3.8954 0.000225033 5.7935 0.000225033 8.25005C0.000225033 8.45345 -0.000675033 8.68025 0.00112497 8.92505C-0.000675033 9.1694 0.000225033 9.3962 0.000225033 9.5996C0.000225033 12.0562 0.538425 13.9543 1.89742 15.3074C2.62912 15.9757 3.54172 16.4153 4.50022 16.7051V18.7688C4.50022 19.487 4.97227 19.5001 5.05867 19.5001H5.06272C5.28502 19.4992 5.47718 19.3903 5.66978 19.2193C5.74223 19.1549 6.57877 18.2225 7.48868 17.2028C8.03047 17.2375 8.54527 17.2501 8.99977 17.2501C11.0248 17.2501 14.1797 17.0633 16.1026 15.3074C17.4611 13.9547 17.9998 12.0562 17.9998 9.5996C17.9998 9.3962 18.0007 9.1694 17.9989 8.9246C18.0007 8.6798 17.9998 8.45345 17.9998 8.2496C17.9998 5.79305 17.4616 3.89495 16.1026 2.5418C14.1802 0.786352 11.0252 0.600052 9.00023 0.600052ZM16.6502 9.443V9.5996C16.6502 11.8073 16.18 13.3117 15.1715 14.33C13.4246 15.9001 10.0969 15.9001 8.99977 15.9001C8.66587 15.9001 8.12407 15.8996 7.48462 15.8551C7.30687 16.0549 5.40022 18.1874 5.40022 18.1874V15.5491C4.45342 15.3218 3.51788 14.9492 2.82893 14.3305C1.82048 13.3117 1.35022 11.8073 1.35022 9.5996V9.443C1.35022 9.28505 1.34977 9.1145 1.35112 8.91515C1.34977 8.73515 1.34977 8.56505 1.35022 8.40665V8.25005C1.35022 6.04235 1.82048 4.538 2.82893 3.51965C4.57538 1.9496 7.90357 1.9496 9.00023 1.9496C10.0969 1.9496 13.4246 1.9496 15.1711 3.51965C16.18 4.538 16.6498 6.04235 16.6498 8.25005V8.40665C16.6498 8.5646 16.6502 8.73515 16.6489 8.9345C16.6502 9.11495 16.6502 9.28505 16.6502 9.443Z" fill="#7E57C2"/>
</svg>
