<svg width="24" height="24" viewBox="0 0 24 24" fill="none" xmlns="http://www.w3.org/2000/svg">
<path fill-rule="evenodd" clip-rule="evenodd" d="M21 5.83403C21 5.05145 20.6828 4.34289 20.1699 3.83004C19.6571 3.31719 18.9485 2.99997 18.1659 2.99997H5.83407C5.05148 2.99997 4.34294 3.31719 3.83009 3.83006C3.31722 4.34291 3 5.05145 3 5.83404V18.1659C3 18.9485 3.31721 19.6571 3.83006 20.1699C4.34291 20.6828 5.05146 21 5.83406 21H18.1659C18.9485 21 19.6571 20.6828 20.1699 20.1699C20.6828 19.6571 21 18.9485 21 18.1659V5.83404L21 5.83403Z" fill="#2DC100"/>
<path fill-rule="evenodd" clip-rule="evenodd" d="M14.0328 8.4868C13.4491 7.71821 12.6182 7.17318 11.6939 6.90004C10.7745 6.62837 9.76212 6.6257 8.80874 6.93975C8.08695 7.17754 7.46228 7.52939 6.96764 8.01623C6.50227 8.47429 6.15366 9.04993 5.9494 9.76018C5.72103 10.5545 5.75861 11.338 6.03366 12.0529C6.30974 12.7704 6.82421 13.4164 7.54801 13.9317C7.62742 13.9884 7.67139 14.0354 7.68663 14.0827C7.7019 14.13 7.69327 14.1939 7.66696 14.2821C7.59953 14.5082 7.55203 14.7421 7.50087 14.9939C7.47798 15.1066 7.45434 15.223 7.42987 15.3347L7.34977 15.7L7.664 15.5019C7.81019 15.4097 7.92757 15.3346 8.04123 15.2618C8.34799 15.0653 8.6308 14.8842 8.90497 14.7281C8.94419 14.7058 8.99412 14.6907 9.04811 14.6815C9.11454 14.6702 9.18545 14.6687 9.25072 14.6742C9.55215 14.6998 9.84036 14.7378 10.1425 14.7777C10.2999 14.7984 10.46 14.8196 10.5252 14.8277L10.7158 14.8515L10.6996 14.6586C10.65 14.0678 10.7154 13.5353 10.8922 13.0547C11.0689 12.5742 11.3573 12.1434 11.7536 11.7557C12.1469 11.3709 12.5861 11.0932 13.0665 10.9043C13.5495 10.7143 14.075 10.6137 14.638 10.5841L14.8 10.5756L14.7849 10.4132C14.7506 10.0421 14.6683 9.69986 14.5417 9.38062C14.415 9.06124 14.2443 8.76522 14.0328 8.48682V8.4868ZM12.0832 9.25556C12.269 9.25402 12.4372 9.3265 12.5598 9.44588C12.683 9.56587 12.7604 9.73303 12.7637 9.92012V9.92073L12.7638 9.92609V9.9267C12.7656 10.1183 12.6937 10.289 12.5732 10.4128C12.4529 10.5364 12.285 10.6123 12.0946 10.6146C11.9053 10.6169 11.734 10.5446 11.609 10.4247C11.4832 10.3041 11.4044 10.1355 11.401 9.94609C11.3977 9.76193 11.4744 9.59017 11.5982 9.46424C11.7208 9.33962 11.8911 9.25909 12.0765 9.25564H12.0771L12.0826 9.25556H12.0832V9.25556ZM9.26205 9.47187C9.38292 9.59868 9.45687 9.76988 9.45161 9.95162V9.95224L9.45146 9.9566V9.95722C9.44442 10.144 9.36147 10.3107 9.23294 10.4292C9.10548 10.5467 8.93316 10.617 8.74612 10.6122H8.7455L8.74316 10.6121C8.55434 10.6065 8.38787 10.5276 8.26957 10.4026C8.15114 10.2775 8.08144 10.1066 8.08622 9.91729L8.08628 9.91498V9.91437C8.09183 9.72528 8.17269 9.55758 8.29957 9.43872C8.42594 9.32031 8.59786 9.25026 8.78615 9.25583H8.78677L8.79148 9.25599H8.79209C8.97497 9.2631 9.14228 9.34624 9.26205 9.47187V9.47187Z" fill="#FFFFFE"/>
<path fill-rule="evenodd" clip-rule="evenodd" d="M17.6462 12.3515C17.087 11.6305 16.2228 11.183 15.2985 11.0453C14.372 10.9074 13.3876 11.0811 12.5909 11.6031C12.3268 11.7761 12.098 11.9697 11.9049 12.1784C11.4356 12.6857 11.1681 13.2879 11.1113 13.9047C11.0547 14.5204 11.2083 15.1526 11.581 15.7215C11.7294 15.9481 11.9113 16.1636 12.127 16.3632C12.5307 16.7365 12.977 17.0001 13.4586 17.1572C13.9483 17.317 14.4754 17.3667 15.0324 17.3097C15.1727 17.2954 15.3229 17.2523 15.4719 17.2095C15.7066 17.1421 15.9389 17.0755 16.1815 17.1008C16.4619 17.13 16.7144 17.263 16.9741 17.3999C16.8835 17.1951 16.8704 17.0168 16.923 16.8453C16.9813 16.655 17.1196 16.4879 17.3209 16.3092C17.9091 15.7875 18.2328 15.1158 18.2905 14.4192C18.349 13.7137 18.1348 12.9813 17.6462 12.3515L17.6462 12.3515ZM15.331 12.7592C15.4377 12.6564 15.5824 12.5932 15.7394 12.5942H15.74L15.7567 12.5945H15.7574C15.9171 12.6004 16.0595 12.6698 16.1615 12.7782C16.2627 12.8859 16.3242 13.0321 16.3231 13.1926L16.3228 13.2112C16.3169 13.3717 16.2499 13.5132 16.144 13.6146C16.0379 13.7161 15.8936 13.7772 15.7332 13.7767C15.7233 13.7766 15.7157 13.7765 15.7105 13.7763C15.5521 13.77 15.4113 13.7017 15.3102 13.5951C15.2094 13.4887 15.1481 13.3444 15.1485 13.1856C15.1485 13.1757 15.1487 13.1678 15.1489 13.1623C15.1552 13.0045 15.2245 12.8619 15.331 12.7592V12.7592ZM13.0424 12.5936C13.2026 12.5997 13.3462 12.669 13.4494 12.7765C13.5525 12.8841 13.6158 13.0303 13.6153 13.19V13.1906C13.6153 13.1997 13.6151 13.2066 13.6149 13.2112C13.6087 13.3705 13.5395 13.5129 13.4318 13.6152C13.3245 13.7172 13.1786 13.7797 13.0187 13.7796C12.8592 13.7794 12.7131 13.7156 12.6058 13.6127C12.4984 13.5096 12.4293 13.3665 12.4236 13.2077C12.4234 13.2017 12.4233 13.1941 12.4234 13.1849C12.4241 13.0272 12.4893 12.8819 12.5935 12.7751C12.6977 12.6683 12.8415 12.5991 12.9993 12.5935C13.0053 12.5933 13.0131 12.5932 13.0224 12.5933L13.0424 12.5936V12.5936Z" fill="#FFFFFE"/>
</svg>
