<svg width="18" height="18" viewBox="0 0 18 18" fill="none" xmlns="http://www.w3.org/2000/svg">
<path fill-rule="evenodd" clip-rule="evenodd" d="M18 2.83403C18 2.05145 17.6828 1.34289 17.1699 0.830045C16.6571 0.317193 15.9485 -3.05176e-05 15.1659 -3.05176e-05H2.83407C2.05148 -3.05176e-05 1.34294 0.317193 0.830089 0.830059C0.317223 1.34291 0 2.05145 0 2.83404V15.1659C0 15.9485 0.317209 16.6571 0.830061 17.1699C1.34291 17.6828 2.05146 18 2.83406 18H15.1659C15.9485 18 16.6571 17.6828 17.1699 17.1699C17.6828 16.6571 18 15.9485 18 15.1659V2.83404L18 2.83403Z" fill="#2DC100"/>
<path fill-rule="evenodd" clip-rule="evenodd" d="M11.0328 5.4868C10.4491 4.71821 9.6182 4.17318 8.69388 3.90004C7.77451 3.62837 6.76212 3.6257 5.80874 3.93975C5.08695 4.17754 4.46228 4.52939 3.96764 5.01623C3.50227 5.47429 3.15366 6.04993 2.9494 6.76018C2.72103 7.55448 2.75861 8.33804 3.03366 9.0529C3.30974 9.77042 3.82421 10.4164 4.54801 10.9317C4.62742 10.9884 4.67139 11.0354 4.68663 11.0827C4.7019 11.13 4.69327 11.1939 4.66696 11.2821C4.59953 11.5082 4.55203 11.7421 4.50087 11.9939C4.47798 12.1066 4.45434 12.223 4.42987 12.3347L4.34977 12.7L4.664 12.5019C4.81019 12.4097 4.92757 12.3346 5.04123 12.2618C5.34799 12.0653 5.6308 11.8842 5.90497 11.7281C5.94419 11.7058 5.99412 11.6907 6.04811 11.6815C6.11454 11.6702 6.18545 11.6687 6.25072 11.6742C6.55215 11.6998 6.84036 11.7378 7.14252 11.7777C7.29994 11.7984 7.45997 11.8196 7.52521 11.8277L7.71579 11.8515L7.69959 11.6586C7.64997 11.0678 7.71543 10.5353 7.89219 10.0547C8.06893 9.57418 8.35731 9.14335 8.75356 8.75571C9.14689 8.37089 9.58609 8.09319 10.0665 7.90428C10.5495 7.71433 11.075 7.61375 11.638 7.5841L11.8 7.57556L11.7849 7.41316C11.7506 7.04214 11.6683 6.69986 11.5417 6.38062C11.415 6.06124 11.2443 5.76522 11.0328 5.48682V5.4868ZM9.08319 6.25556C9.26904 6.25402 9.43724 6.3265 9.55983 6.44588C9.68302 6.56587 9.76037 6.73303 9.76374 6.92012V6.92073L9.76381 6.92609V6.9267C9.76563 7.11828 9.69366 7.28899 9.57315 7.41281C9.45292 7.53641 9.28495 7.61232 9.0946 7.61462C8.90531 7.61692 8.73399 7.5446 8.609 7.42475C8.48322 7.30414 8.40438 7.1355 8.401 6.94609C8.39767 6.76193 8.47436 6.59017 8.59823 6.46424C8.72081 6.33962 8.89109 6.25909 9.07654 6.25564H9.07715L9.08259 6.25556H9.08319V6.25556ZM6.26205 6.47187C6.38292 6.59868 6.45687 6.76988 6.45161 6.95162V6.95224L6.45146 6.9566V6.95722C6.44442 7.14402 6.36147 7.31067 6.23294 7.42919C6.10548 7.54674 5.93316 7.617 5.74612 7.61221H5.7455L5.74316 7.61214C5.55434 7.60653 5.38787 7.52761 5.26957 7.4026C5.15114 7.27747 5.08144 7.10662 5.08622 6.91729L5.08628 6.91498V6.91437C5.09183 6.72528 5.17269 6.55758 5.29957 6.43872C5.42594 6.32031 5.59786 6.25026 5.78615 6.25583H5.78677L5.79148 6.25599H5.79209C5.97497 6.2631 6.14228 6.34624 6.26205 6.47187V6.47187Z" fill="#FFFFFE"/>
<path fill-rule="evenodd" clip-rule="evenodd" d="M14.6462 9.35149C14.087 8.63052 13.2228 8.18297 12.2985 8.04534C11.372 7.9074 10.3876 8.08113 9.59086 8.60309C9.32682 8.77606 9.09798 8.96968 8.90491 9.17841C8.43565 9.68572 8.16812 10.2879 8.11135 10.9047C8.05468 11.5204 8.20826 12.1526 8.58099 12.7215C8.72941 12.9481 8.91127 13.1636 9.12705 13.3632C9.53069 13.7365 9.97697 14.0001 10.4586 14.1572C10.9483 14.317 11.4754 14.3667 12.0324 14.3097C12.1727 14.2954 12.3229 14.2523 12.4719 14.2095C12.7066 14.1421 12.9389 14.0755 13.1815 14.1008C13.4619 14.13 13.7144 14.263 13.9741 14.3999C13.8835 14.1951 13.8704 14.0168 13.923 13.8453C13.9813 13.655 14.1196 13.4879 14.3209 13.3092C14.9091 12.7875 15.2328 12.1158 15.2905 11.4192C15.349 10.7137 15.1348 9.98133 14.6462 9.35149L14.6462 9.35149ZM12.331 9.75925C12.4377 9.6564 12.5824 9.59315 12.7394 9.59425H12.74L12.7567 9.59453H12.7574C12.9171 9.60041 13.0595 9.6698 13.1615 9.77821C13.2627 9.88586 13.3242 10.0321 13.3231 10.1926L13.3228 10.2112C13.3169 10.3717 13.2499 10.5132 13.144 10.6146C13.0379 10.7161 12.8936 10.7772 12.7332 10.7767C12.7233 10.7766 12.7157 10.7765 12.7105 10.7763C12.5521 10.77 12.4113 10.7017 12.3102 10.5951C12.2094 10.4887 12.1481 10.3444 12.1485 10.1856C12.1485 10.1757 12.1487 10.1678 12.1489 10.1623C12.1552 10.0045 12.2245 9.86186 12.331 9.75925V9.75925ZM10.0424 9.5936C10.2026 9.59972 10.3462 9.669 10.4494 9.77654C10.5525 9.88415 10.6158 10.0303 10.6153 10.19V10.1906C10.6153 10.1997 10.6151 10.2066 10.6149 10.2112C10.6087 10.3705 10.5395 10.5129 10.4318 10.6152C10.3245 10.7172 10.1786 10.7797 10.0187 10.7796C9.85918 10.7794 9.71313 10.7156 9.60583 10.6127C9.49844 10.5096 9.4293 10.3665 9.42363 10.2077C9.42342 10.2017 9.42334 10.1941 9.42337 10.1849C9.42411 10.0272 9.48934 9.88186 9.5935 9.77512C9.69771 9.66835 9.84153 9.59909 9.99932 9.59354C10.0053 9.59332 10.0131 9.59324 10.0224 9.59328L10.0424 9.5936V9.5936Z" fill="#FFFFFE"/>
</svg>
