<svg width="18" height="18" viewBox="0 0 18 18" fill="none" xmlns="http://www.w3.org/2000/svg">
<path d="M0.448639 17.5526L1.65691 13.1602C0.911495 11.8749 0.519503 10.4163 0.519951 8.92241C0.522194 4.24868 4.34166 0.446274 9.0357 0.446274C11.3137 0.447167 13.4512 1.33011 15.0591 2.93208C16.6666 4.5345 17.5519 6.66392 17.551 8.9291C17.5492 13.6028 13.7288 17.4057 9.0357 17.4057C9.03525 17.4057 9.0357 17.4057 9.0357 17.4057H9.03211C7.60722 17.4052 6.20654 17.0493 4.96283 16.3736L0.448639 17.5526Z" fill="white"/>
<path d="M0.448665 17.7765C0.389463 17.7765 0.332054 17.7532 0.289446 17.7104C0.233383 17.6536 0.211407 17.571 0.232486 17.4946L1.41609 13.1912C0.682336 11.8933 0.295277 10.4195 0.296174 8.92339C0.297968 4.12595 4.21834 0.223503 9.03573 0.223503C11.3724 0.224396 13.5679 1.13056 15.2179 2.77496C16.868 4.41981 17.7762 6.6055 17.7753 8.92964C17.7735 13.7266 13.8527 17.6295 9.03573 17.6295C7.60545 17.6291 6.19042 17.2776 4.9346 16.6126L0.505625 17.7689C0.486788 17.7742 0.467951 17.7765 0.448665 17.7765Z" fill="white"/>
<path d="M9.03575 0.446606C11.3137 0.447499 13.4513 1.33044 15.0592 2.93241C16.6666 4.53483 17.5519 6.66425 17.551 8.92944C17.5493 13.6032 13.7289 17.406 9.03575 17.406H9.03216C7.60726 17.4056 6.20658 17.0496 4.96288 16.3739L0.448689 17.5529L1.65696 13.1606C0.911545 11.8752 0.519552 10.4166 0.520001 8.92274C0.522243 4.24901 4.3417 0.446606 9.03575 0.446606ZM9.03575 0C4.09503 0 0.0737392 4.00248 0.0714966 8.92274C0.0710481 10.4265 0.452277 11.9083 1.17527 13.22L0.0158822 17.4355C-0.0262772 17.5896 0.0167792 17.7539 0.129802 17.8674C0.215018 17.9531 0.330284 18 0.448689 18C0.486811 18 0.524934 17.9951 0.562609 17.9853L4.90727 16.8509C6.17564 17.5065 7.5974 17.8526 9.03216 17.8531C13.9765 17.8531 17.9978 13.8501 18 8.92988C18.0009 6.54545 17.0694 4.30349 15.3771 2.61711C13.684 0.93028 11.4321 0.000893212 9.03575 0Z" fill="#CFD8DC"/>
<path d="M14.0419 3.94454C12.7054 2.61276 10.9289 1.87899 9.03796 1.87854C5.13418 1.87854 1.95922 5.03872 1.95743 8.9233C1.95698 10.2546 2.33103 11.5507 3.03967 12.673L3.20831 12.9396L2.49294 15.5393L5.17186 14.8399L5.43064 14.9927C6.51692 15.6349 7.76287 15.9743 9.03303 15.9748H9.03572C12.9368 15.9748 16.1118 12.8141 16.1131 8.92911C16.1136 7.04666 15.3785 5.27632 14.0419 3.94454Z" fill="#40C351"/>
<path fill-rule="evenodd" clip-rule="evenodd" d="M6.90708 5.37948C6.74787 5.02666 6.58013 5.01951 6.42808 5.01326C6.30385 5.0079 6.16212 5.00835 6.02039 5.00835C5.87866 5.00835 5.64813 5.06149 5.45303 5.27363C5.25793 5.48577 4.70807 5.99803 4.70807 7.0404C4.70807 8.08278 5.47053 9.09032 5.57682 9.23145C5.68312 9.37258 7.04881 11.5801 9.2115 12.4296C11.0087 13.1352 11.3746 12.995 11.7648 12.9597C12.155 12.9244 13.0238 12.4475 13.2009 11.9526C13.3781 11.4578 13.3781 11.0339 13.3252 10.9455C13.2718 10.8571 13.1301 10.8044 12.9175 10.6981C12.7049 10.5918 11.6585 10.0796 11.4634 10.009C11.2683 9.93843 11.1266 9.90314 10.9844 10.1153C10.8427 10.327 10.435 10.8044 10.3108 10.9455C10.1865 11.0871 10.0623 11.105 9.84972 10.9987C9.63713 10.8924 8.95182 10.6691 8.13868 9.94736C7.50629 9.38597 7.07931 8.6924 6.95507 8.48026C6.83084 8.26857 6.94162 8.15379 7.04836 8.04795C7.1439 7.95282 7.26095 7.80053 7.3677 7.67682C7.47399 7.55311 7.50943 7.46468 7.58029 7.32355C7.65115 7.18198 7.61572 7.05827 7.56235 6.95242C7.50987 6.84613 7.09635 5.79839 6.90708 5.37948Z" fill="white"/>
</svg>
