<svg width="18" height="18" viewBox="0 0 18 18" fill="none" xmlns="http://www.w3.org/2000/svg">
<path d="M15.4534 0H2.54659C1.14014 0 0 1.14014 0 2.54659V15.453C0 16.8599 1.14014 18 2.54659 18H15.453C16.8599 18 18 16.8599 18 15.4534V2.54659C18 1.14014 16.8599 0 15.4534 0Z" fill="url(#paint0_linear_2_1801)"/>
<path d="M11.8636 12.1841C11.8636 12.459 11.6407 12.682 11.3658 12.682H4.02257C3.15653 12.682 2.45453 11.9755 2.45453 11.1041V5.81621C2.45453 5.5413 2.67748 5.31834 2.95239 5.31834H10.2956C11.1616 5.31834 11.8636 6.02484 11.8636 6.89621V12.1841Z" fill="white"/>
<path d="M15.3781 12.3112L12.8536 10.6883C12.7464 10.6196 12.6818 10.501 12.6818 10.3738V7.6263C12.6818 7.49908 12.7464 7.38044 12.8536 7.31171L15.3781 5.68885C15.6268 5.52889 15.9545 5.70767 15.9545 6.00344V11.9962C15.9545 12.2924 15.6268 12.4712 15.3781 12.3112Z" fill="white"/>
<defs>
<linearGradient id="paint0_linear_2_1801" x1="9" y1="20.2586" x2="9" y2="2.25859" gradientUnits="userSpaceOnUse">
<stop stop-color="#155CDE"/>
<stop offset="0.278" stop-color="#1F7FE5"/>
<stop offset="0.569" stop-color="#279CEB"/>
<stop offset="0.82" stop-color="#2CAFEF"/>
<stop offset="1" stop-color="#2EB5F0"/>
</linearGradient>
</defs>
</svg>
