<svg width="24" height="24" viewBox="0 0 24 24" fill="none" xmlns="http://www.w3.org/2000/svg">
<path d="M11.7115 20.4C11.5829 20.3996 11.4581 20.3566 11.3565 20.2777C8.12024 17.7633 5.89097 15.598 4.33107 13.4619C2.34044 10.732 1.88644 8.21175 2.9807 5.97084C3.76065 4.37019 6.00156 3.06057 8.62081 3.82306C9.86963 4.18378 10.9592 4.95736 11.7115 6.0174C12.4638 4.95736 13.5534 4.18378 14.8022 3.82306C17.4156 3.07221 19.6624 4.37019 20.4423 5.97084C21.5366 8.21175 21.0826 10.732 19.092 13.4619C17.5321 15.598 15.3028 17.7633 12.0666 20.2777C11.965 20.3566 11.8401 20.3996 11.7115 20.4V20.4ZM7.13075 4.77181C6.50752 4.74755 5.88944 4.89349 5.34288 5.19394C4.79631 5.4944 4.34189 5.93803 4.0284 6.47723C3.12622 8.32816 3.53365 10.3886 5.274 12.7692C7.12351 15.1548 9.28925 17.2775 11.7115 19.0787C14.1334 17.2793 16.2991 15.1586 18.149 12.7751C19.8952 10.3886 20.2968 8.32816 19.3946 6.48305C18.8126 5.31894 17.0664 4.39347 15.1224 4.9406C14.499 5.12482 13.9211 5.43751 13.4259 5.85855C12.9307 6.27958 12.5291 6.79963 12.247 7.38523C12.2032 7.49199 12.1286 7.58329 12.0327 7.64755C11.9368 7.71181 11.824 7.74612 11.7086 7.74612C11.5932 7.74612 11.4804 7.71181 11.3845 7.64755C11.2887 7.58329 11.2141 7.49199 11.1702 7.38523C10.8902 6.79817 10.4893 6.2769 9.99381 5.8556C9.49828 5.43431 8.91932 5.1225 8.29486 4.9406C7.91651 4.83071 7.52473 4.77391 7.13075 4.77181V4.77181Z" fill="#2F80ED"/>
</svg>
