<svg width="24" height="24" viewBox="0 0 24 24" fill="none" xmlns="http://www.w3.org/2000/svg">
<rect x="2.93336" y="4.13333" width="18.1333" height="18.1333" stroke="#2F80ED" stroke-width="1.06667"/>
<line x1="5.67616" y1="3.6" x2="5.67615" y2="22.8" stroke="#2F80ED" stroke-width="1.06667"/>
<path d="M12.7241 12.9348C12.2071 12.9348 11.7667 12.7528 11.4026 12.3888C11.0386 12.0247 10.8566 11.5842 10.8566 11.0673C10.8566 10.5504 11.0386 10.1099 11.4026 9.74586C11.7667 9.38183 12.2071 9.19981 12.7241 9.19981C13.241 9.19981 13.6815 9.38183 14.0455 9.74586C14.4096 10.1099 14.5916 10.5504 14.5916 11.0673C14.5916 11.5842 14.4096 12.0247 14.0455 12.3888C13.6815 12.7528 13.241 12.9348 12.7241 12.9348ZM12.7241 13.874C13.1828 13.874 13.6888 13.9395 14.2421 14.0706C14.7954 14.2017 15.3014 14.4164 15.7601 14.7149C16.2188 15.0134 16.4482 15.352 16.4482 15.7306V16.6698H9V15.7306C9 15.352 9.22934 15.0134 9.68803 14.7149C10.1467 14.4164 10.6527 14.2017 11.2061 14.0706C11.7594 13.9395 12.2654 13.874 12.7241 13.874Z" stroke="#2F80ED" stroke-width="0.96"/>
</svg>
