<svg width="24" height="24" viewBox="0 0 24 24" fill="none" xmlns="http://www.w3.org/2000/svg">
<rect x="4.20001" y="7.8" width="1.2" height="1.2" fill="#2F80ED"/>
<rect x="4.20001" y="10.2" width="1.2" height="1.2" fill="#2F80ED"/>
<rect x="4.20001" y="12.6" width="1.2" height="1.2" fill="#2F80ED"/>
<rect x="13.8" y="7.8" width="1.2" height="1.2" fill="#2F80ED"/>
<rect x="13.8" y="10.2" width="1.2" height="1.2" fill="#2F80ED"/>
<rect x="13.8" y="12.6" width="1.2" height="1.2" fill="#2F80ED"/>
<rect x="6.59998" y="7.8" width="1.2" height="1.2" fill="#2F80ED"/>
<rect x="6.59998" y="10.2" width="1.2" height="1.2" fill="#2F80ED"/>
<rect x="6.59998" y="12.6" width="1.2" height="1.2" fill="#2F80ED"/>
<rect x="16.2" y="7.8" width="1.2" height="1.2" fill="#2F80ED"/>
<rect x="16.2" y="10.2" width="1.2" height="1.2" fill="#2F80ED"/>
<rect x="16.2" y="12.6" width="1.2" height="1.2" fill="#2F80ED"/>
<rect x="9" y="7.8" width="1.2" height="1.2" fill="#2F80ED"/>
<rect x="9" y="10.2" width="1.2" height="1.2" fill="#2F80ED"/>
<rect x="9" y="12.6" width="1.2" height="1.2" fill="#2F80ED"/>
<rect x="18.6" y="7.8" width="1.2" height="1.2" fill="#2F80ED"/>
<rect x="18.6" y="10.2" width="1.2" height="1.2" fill="#2F80ED"/>
<rect x="18.6" y="12.6" width="1.2" height="1.2" fill="#2F80ED"/>
<rect x="11.4" y="7.8" width="1.2" height="1.2" fill="#2F80ED"/>
<rect x="11.4" y="10.2" width="1.2" height="1.2" fill="#2F80ED"/>
<rect x="11.4" y="12.6" width="1.2" height="1.2" fill="#2F80ED"/>
<rect x="5.40002" y="15" width="13.2" height="1.2" fill="#2F80ED"/>
<rect x="2.39999" y="5.99999" width="19.2" height="12" stroke="#2F80ED" stroke-width="1.2"/>
</svg>
