<svg width="24" height="24" viewBox="0 0 24 24" fill="none" xmlns="http://www.w3.org/2000/svg">
<path d="M19.8 12.3C19.8 16.4421 16.4421 19.8 12.3 19.8C8.15788 19.8 4.80001 16.4421 4.80001 12.3C4.80001 8.15786 8.15788 4.8 12.3 4.8C16.4421 4.8 19.8 8.15786 19.8 12.3Z" stroke="#2F80ED" stroke-width="1.2"/>
<line y1="-0.6" x2="3.6" y2="-0.6" transform="matrix(-1 0 0 1 6 12.6)" stroke="#2F80ED" stroke-width="1.2"/>
<line y1="-0.6" x2="3.6" y2="-0.6" transform="matrix(-1 0 0 1 21.6 12.6)" stroke="#2F80ED" stroke-width="1.2"/>
<line x1="12" y1="2.4" x2="12" y2="6" stroke="#2F80ED" stroke-width="1.2"/>
<line x1="12" y1="18" x2="12" y2="21.6" stroke="#2F80ED" stroke-width="1.2"/>
<path d="M15.6 12.3C15.6 14.1225 14.1226 15.6 12.3 15.6C10.4775 15.6 9.00002 14.1225 9.00002 12.3C9.00002 10.4775 10.4775 9 12.3 9C14.1226 9 15.6 10.4775 15.6 12.3Z" stroke="#2F80ED" stroke-width="1.2"/>
</svg>
