<svg width="24" height="24" viewBox="0 0 24 24" fill="none" xmlns="http://www.w3.org/2000/svg">
<path d="M6.56129 11.0129H7.91576L10.1226 6.26451V3C10.1226 3 10.4547 3 11.0129 3C12.2911 3 13.2426 4.81537 13.2429 6.45534C13.2429 6.99013 12.9508 8.56392 12.698 9.8258H19.8505C20.653 9.8258 21.3593 10.4345 21.3982 11.2361C21.4353 12.0003 20.8931 12.6413 20.1734 12.7677C20.5554 13.036 20.8064 13.4782 20.8064 13.9806C20.8064 14.7122 20.2761 15.3164 19.5799 15.4387C19.9618 15.707 20.2129 16.1492 20.2129 16.6516C20.2129 17.4443 19.5897 18.0859 18.8071 18.1275C19.1534 18.3993 19.3665 18.8332 19.3146 19.319C19.241 20.0078 18.6207 20.5097 17.928 20.5097H9.79434C8.98089 20.5097 8.23747 20.05 7.87362 19.3226H6.56129V11.0129ZM6.56129 11.0129V20.5097H3.89032L3.50422 16.2225L3 11.0129H6.56129Z" stroke="#2F80ED" stroke-width="1.08" stroke-miterlimit="10"/>
</svg>
