<svg width="24" height="24" viewBox="0 0 24 24" fill="none" xmlns="http://www.w3.org/2000/svg">
<path d="M19.558 10.9454L19.558 10.9454C19.3144 10.8195 19.0148 10.915 18.8889 11.1587L18.2411 12.4123L18.1869 12.5172L18.1341 12.4116L17.5106 11.1645L17.5106 11.1645C17.4265 10.9963 17.2545 10.89 17.0664 10.89C16.8783 10.89 16.7063 10.9963 16.6222 11.1645L16.6222 11.1645L16.0068 12.3954L15.9531 12.5027L15.8994 12.3954L15.284 11.1645L15.284 11.1645C15.195 10.9865 15.0087 10.879 14.8094 10.8909C14.8094 10.8909 14.8094 10.8909 14.8094 10.8909L14.7758 10.893L14.7757 10.893C14.5546 10.9066 14.3761 11.063 14.3246 11.2672L14.2082 11.2671C14.1743 11.1308 14.0837 11.0099 13.9487 10.9424L13.9755 10.8888L13.9487 10.9424C13.7034 10.8198 13.405 10.9192 13.2824 11.1645L12.6669 12.3954L12.6133 12.5027L12.5596 12.3954L11.9442 11.1646C11.9442 11.1646 11.9442 11.1645 11.9442 11.1645C11.86 10.9963 11.6881 10.89 11.5 10.89C11.3119 10.89 11.1399 10.9963 11.0558 11.1645C11.0558 11.1645 11.0558 11.1646 11.0558 11.1646L10.4404 12.3954L10.3867 12.5027L10.333 12.3954L9.71766 11.1646C9.71766 11.1645 9.71766 11.1645 9.71766 11.1645C9.59498 10.9192 9.29663 10.8198 9.05133 10.9424L9.05132 10.9425C8.91624 11.01 8.82568 11.1308 8.79178 11.2671L8.67537 11.2672C8.62394 11.063 8.44542 10.9065 8.22423 10.893L8.22421 10.893L8.19052 10.8909C7.99176 10.8786 7.80499 10.9864 7.71595 11.1645L7.71595 11.1645L7.10053 12.3954L7.04686 12.5027L6.9932 12.3954L6.37784 11.1646C6.19679 10.8034 5.67382 10.7956 5.48939 11.1645L5.48939 11.1645L4.86584 12.4116L4.81305 12.5172L4.75887 12.4124L4.11112 11.1587L4.11112 11.1587C3.98524 10.915 3.68565 10.8196 3.44195 10.9455L19.558 10.9454ZM19.558 10.9454C19.8017 11.0713 19.8972 11.3709 19.7713 11.6146L18.6209 13.8412C18.4344 14.2021 17.917 14.1983 17.7355 13.8353L17.7355 13.8353L17.1201 12.6045L17.0664 12.4972L17.0127 12.6045L16.3973 13.8353L16.3973 13.8353C16.2149 14.2002 15.6917 14.2009 15.5089 13.8353L15.4553 13.8621L15.5089 13.8353L14.4718 11.761L14.4672 11.7519L14.4599 11.7448C14.3948 11.6815 14.347 11.6003 14.3243 11.5085L14.2079 11.5082C14.1991 11.5425 14.187 11.5762 14.1707 11.6087L13.0575 13.8353L13.1111 13.8621L13.0575 13.8353C12.8751 14.2002 12.3519 14.201 12.169 13.8353L11.5537 12.6045L11.5 12.4972L11.4463 12.6045L10.8309 13.8353C10.6485 14.2002 10.1253 14.2009 9.94251 13.8353L8.82924 11.6088C8.81298 11.5762 8.80083 11.5425 8.79212 11.5082L8.67572 11.5085C8.65302 11.6002 8.6052 11.6814 8.54011 11.7447L8.53281 11.7518L8.52826 11.7609L7.49109 13.8353C7.30865 14.2002 6.7855 14.2009 6.60267 13.8353L5.98725 12.6045L5.93358 12.4972L5.87991 12.6045L5.26453 13.8354C5.26453 13.8354 5.26453 13.8354 5.26453 13.8354C5.08284 14.1987 4.56539 14.2019 4.37909 13.8412L4.37908 13.8412L3.22869 11.6147L3.22869 11.6147M19.558 10.9454L3.22869 11.6147M3.22869 11.6147C3.10278 11.371 3.19826 11.0714 3.44195 10.9455L3.22869 11.6147ZM4.77808 12.3188L4.75851 12.358L4.81217 12.3848L4.86548 12.3573L4.84539 12.3184L5.43572 11.1377L4.77808 12.3188Z" fill="#2F80ED" stroke="white" stroke-width="0.12"/>
<path d="M20.1789 8.62627L20.1941 8.66352H20.2344H20.94V10.2734V14.7266V16.3291H20.2812H20.241L20.2257 16.3663C18.8215 19.7935 15.4354 21.94 11.5 21.94C7.56664 21.94 4.3354 19.7952 2.93052 16.3663L2.91526 16.3291H2.875H2.06V14.7266V10.2734V8.66352H2.875H2.91526L2.93052 8.62626C4.33504 5.19822 7.56564 3.06 11.5 3.06C15.4342 3.06 18.7742 5.19805 20.1789 8.62627ZM18.9235 8.66352H19.0232L18.9766 8.57546C17.9816 6.69495 16.3067 5.26567 14.3407 4.55402L14.1448 4.48312L14.273 4.64735C14.3228 4.71115 14.372 4.77653 14.4206 4.8439C15.1173 5.80981 15.6668 7.10693 16.0193 8.61715L16.0301 8.66352H16.0777H18.9235ZM12.0757 4.14962L11.9966 4.12306V4.2065V8.60352V8.66352H12.0566H14.9321H15.0092L14.9903 8.58879C14.7894 7.79541 14.4497 6.81855 13.9677 5.97463C13.4868 5.1326 12.8584 4.41242 12.0757 4.14962ZM11.0034 4.2065V4.12306L10.9243 4.14962C10.2618 4.37206 9.73499 4.93973 9.38498 5.42495C8.80024 6.23559 8.33072 7.32056 8.0097 8.58879L7.99079 8.66352H8.06787H10.9434H11.0034V8.60352V4.2065ZM8.72703 4.64735L8.85517 4.48312L8.6593 4.55402C6.69323 5.26567 5.01838 6.69495 4.02342 8.57546L3.97683 8.66352H4.07646H6.92226H6.96987L6.98069 8.61715C7.33313 7.10692 7.88269 5.80979 8.57939 4.84389C8.62801 4.77649 8.67724 4.71116 8.72703 4.64735ZM4.07646 16.3365H3.97683L4.02342 16.4245C5.01838 18.3051 6.69323 19.7343 8.6593 20.446L8.85516 20.5169L8.72703 20.3527C7.85749 19.2382 7.30362 17.7665 6.98069 16.3829L6.96987 16.3365H6.92226H4.07646ZM10.9243 20.8504L11.0034 20.8769V20.7935V16.3965V16.3365H10.9434H8.06787H7.99079L8.0097 16.4112C8.21052 17.2046 8.55031 18.1815 9.03227 19.0254C9.51315 19.8674 10.1416 20.5876 10.9243 20.8504ZM11.9966 20.7935V20.8769L12.0757 20.8504C12.8569 20.5881 13.4851 19.8666 13.9663 19.0229C14.4486 18.1773 14.7892 17.1983 14.9903 16.4038L15.0092 16.3291H14.9321H12.0566H11.9966V16.3891V20.7935ZM14.273 20.3527L14.1448 20.5169L14.3407 20.446C16.3069 19.7343 17.9817 18.2975 18.9766 16.4171L19.0232 16.3291H18.9235H16.0777H16.0301L16.0193 16.3754C15.6963 17.7595 15.1424 19.2384 14.273 20.3527ZM3.11328 9.6568H3.05328V9.7168V10.2734V14.7266V15.2832V15.3432H3.11328H3.66992H3.67245H3.67532H3.67851H3.68203H3.68587H3.69004H3.69454H3.69936H3.7045H3.70996H3.71573H3.72183H3.72824H3.73497H3.74201H3.74937H3.75703H3.76501H3.77329H3.78188H3.79077H3.79997H3.80948H3.81928H3.82939H3.8398H3.8505H3.8615H3.8728H3.88439H3.89627H3.90845H3.92091H3.93367H3.94671H3.96004H3.97365H3.98755H4.00173H4.01619H4.03093H4.04595H4.06125H4.07682H4.09267H4.10879H4.12519H4.14185H4.15879H4.17599H4.19346H4.21119H4.22919H4.24745H4.26598H4.28476H4.3038H4.3231H4.34266H4.36248H4.38254H4.40286H4.42343H4.44425H4.46532H4.48664H4.5082H4.53001H4.55206H4.57436H4.59689H4.61967H4.64268H4.66593H4.68942H4.71314H4.73709H4.76128H4.78569H4.81034H4.83521H4.86031H4.88564H4.91119H4.93696H4.96295H4.98917H5.0156H5.04225H5.06912H5.0962H5.12349H5.151H5.17872H5.20665H5.23479H5.26313H5.29168H5.32043H5.34939H5.37855H5.40791H5.43747H5.46723H5.49719H5.52734H5.55768H5.58822H5.61895H5.64987H5.68098H5.71228H5.74376H5.77543H5.80728H5.83931H5.87153H5.90392H5.9365H5.96925H6.00218H6.03528H6.06855H6.102H6.13562H6.16941H6.20337H6.23749H6.27178H6.30623H6.34085H6.37563H6.41056H6.44566H6.48092H6.51633H6.5519H6.58762H6.62349H6.65952H6.69569H6.73202H6.76849H6.80511H6.84187H6.87878H6.91582H6.95301H6.99034H7.02781H7.06542H7.10316H7.14103H7.17904H7.21718H7.25545H7.29385H7.33238H7.37103H7.40981H7.44872H7.48774H7.52689H7.56616H7.60555H7.64505H7.68467H7.72441H7.76426H7.80422H7.84429H7.88448H7.92477H7.96517H8.00567H8.04628H8.087H8.12781H8.16873H8.20974H8.25085H8.29206H8.33337H8.37477H8.41626H8.45785H8.49952H8.54128H8.58313H8.62507H8.66709H8.7092H8.75139H8.79366H8.83601H8.87844H8.92095H8.96353H9.00619H9.04892H9.09172H9.13459H9.17754H9.22055H9.26362H9.30677H9.34998H9.39325H9.43658H9.47997H9.52343H9.56694H9.61051H9.65413H9.6978H9.74153H9.78531H9.82914H9.87302H9.91695H9.96092H10.0049H10.049H10.0931H10.1372H10.1814H10.2257H10.2699H10.3142H10.3585H10.4029H10.4473H10.4917H10.5362H10.5807H10.6252H10.6697H10.7143H10.7588H10.8035H10.8481H10.8927H10.9374H10.9821H11.0267H11.0714H11.1162H11.1609H11.2056H11.2504H11.2951H11.3399H11.3847H11.4294H11.4742H11.519H11.5637H11.6085H11.6533H11.698H11.7428H11.7875H11.8323H11.877H11.9217H11.9664H12.0111H12.0558H12.1005H12.1451H12.1897H12.2343H12.2789H12.3235H12.368H12.4125H12.457H12.5015H12.5459H12.5903H12.6347H12.679H12.7233H12.7676H12.8118H12.856H12.9001H12.9442H12.9883H13.0323H13.0763H13.1202H13.1641H13.208H13.2517H13.2955H13.3392H13.3828H13.4264H13.4699H13.5133H13.5567H13.6001H13.6434H13.6866H13.7297H13.7728H13.8158H13.8588H13.9017H13.9445H13.9872H14.0299H14.0725H14.115H14.1574H14.1998H14.242H14.2842H14.3264H14.3684H14.4103H14.4522H14.494H14.5357H14.5773H14.6188H14.6602H14.7015H14.7427H14.7838H14.8249H14.8658H14.9066H14.9473H14.9879H15.0285H15.0689H15.1092H15.1494H15.1895H15.2294H15.2693H15.309H15.3487H15.3882H15.4276H15.4669H15.506H15.5451H15.584H15.6228H15.6615H15.7H15.7384H15.7767H15.8149H15.8529H15.8908H15.9285H15.9661H16.0036H16.041H16.0782H16.1152H16.1522H16.1889H16.2256H16.2621H16.2984H16.3346H16.3706H16.4065H16.4423H16.4778H16.5133H16.5485H16.5837H16.6186H16.6534H16.688H16.7225H16.7568H16.791H16.8249H16.8587H16.8924H16.9258H16.9591H16.9923H17.0252H17.058H17.0906H17.123H17.1552H17.1873H17.2191H17.2508H17.2823H17.3137H17.3448H17.3757H17.4065H17.437H17.4674H17.4976H17.5275H17.5573H17.5869H17.6163H17.6455H17.6745H17.7032H17.7318H17.7602H17.7883H17.8163H17.844H17.8716H17.8989H17.926H17.9529H17.9795H18.006H18.0322H18.0583H18.0841H18.1096H18.135H18.1601H18.185H18.2097H18.2341H18.2583H18.2823H18.306H18.3296H18.3528H18.3759H18.3987H18.4212H18.4436H18.4656H18.4875H18.5091H18.5304H18.5515H18.5723H18.5929H18.6133H18.6334H18.6532H18.6728H18.6921H18.7112H18.73H18.7486H18.7669H18.7849H18.8027H18.8202H18.8374H18.8543H18.871H18.8875H18.9036H18.9195H18.9351H18.9504H18.9655H18.9802H18.9947H19.0089H19.0229H19.0365H19.0499H19.063H19.0757H19.0882H19.1004H19.1124H19.124H19.1353H19.1463H19.1571H19.1675H19.1777H19.1875H19.197H19.2063H19.2152H19.2238H19.2321H19.2401H19.2478H19.2552H19.2623H19.2691H19.2755H19.2816H19.2875H19.2929H19.2981H19.303H19.3075H19.3117H19.3156H19.3192H19.3224H19.3253H19.3278H19.3301H19.8867H19.9467V15.2832V14.7266V10.2734V9.7168V9.6568H19.8867H19.3301H19.3277H19.3249H19.3219H19.3184H19.3147H19.3106H19.3062H19.3014H19.2963H19.2909H19.2852H19.2791H19.2727H19.266H19.259H19.2516H19.244H19.236H19.2277H19.219H19.2101H19.2008H19.1913H19.1814H19.1712H19.1607H19.1499H19.1388H19.1274H19.1157H19.1037H19.0914H19.0788H19.0659H19.0527H19.0392H19.0255H19.0114H18.997H18.9824H18.9674H18.9522H18.9367H18.9209H18.9048H18.8885H18.8719H18.855H18.8378H18.8203H18.8026H18.7846H18.7663H18.7478H18.7289H18.7099H18.6905H18.6709H18.651H18.6309H18.6105H18.5899H18.5689H18.5478H18.5264H18.5047H18.4828H18.4606H18.4382H18.4155H18.3926H18.3694H18.346H18.3223H18.2984H18.2743H18.2499H18.2253H18.2005H18.1754H18.1501H18.1246H18.0988H18.0728H18.0466H18.0201H17.9934H17.9665H17.9394H17.912H17.8845H17.8567H17.8287H17.8005H17.772H17.7434H17.7145H17.6855H17.6562H17.6267H17.597H17.5671H17.537H17.5067H17.4762H17.4455H17.4146H17.3835H17.3522H17.3208H17.2891H17.2572H17.2252H17.1929H17.1605H17.1279H17.0951H17.0621H17.0289H16.9956H16.962H16.9283H16.8944H16.8604H16.8261H16.7917H16.7572H16.7224H16.6875H16.6524H16.6172H16.5818H16.5462H16.5105H16.4746H16.4385H16.4023H16.366H16.3294H16.2928H16.2559H16.219H16.1818H16.1446H16.1071H16.0696H16.0319H15.994H15.956H15.9179H15.8796H15.8412H15.8026H15.764H15.7251H15.6862H15.6471H15.6079H15.5686H15.5291H15.4895H15.4498H15.41H15.37H15.33H15.2898H15.2495H15.209H15.1685H15.1278H15.0871H15.0462H15.0052H14.9641H14.9229H14.8816H14.8402H14.7987H14.7571H14.7154H14.6736H14.6317H14.5897H14.5476H14.5054H14.4632H14.4208H14.3783H14.3358H14.2932H14.2505H14.2077H14.1648H14.1218H14.0788H14.0357H13.9925H13.9492H13.9059H13.8624H13.819H13.7754H13.7318H13.6881H13.6443H13.6005H13.5566H13.5127H13.4687H13.4246H13.3805H13.3363H13.2921H13.2478H13.2034H13.1591H13.1146H13.0701H13.0256H12.981H12.9364H12.8917H12.847H12.8023H12.7575H12.7126H12.6678H12.6229H12.5779H12.533H12.488H12.443H12.3979H12.3528H12.3077H12.2626H12.2175H12.1723H12.1271H12.0819H12.0367H11.9914H11.9462H11.9009H11.8556H11.8103H11.765H11.7197H11.6744H11.6291H11.5837H11.5384H11.4931H11.4478H11.4024H11.3571H11.3118H11.2665H11.2212H11.1759H11.1306H11.0853H11.04H10.9948H10.9496H10.9043H10.8591H10.814H10.7688H10.7237H10.6785H10.6335H10.5884H10.5433H10.4983H10.4534H10.4084H10.3635H10.3186H10.2738H10.229H10.1842H10.1395H10.0948H10.0501H10.0055H9.96095H9.91643H9.87196H9.82755H9.78318H9.73886H9.6946H9.65039H9.60624H9.56214H9.5181H9.47412H9.43021H9.38635H9.34256H9.29883H9.25517H9.21158H9.16806H9.12461H9.08122H9.03792H8.99468H8.95153H8.90845H8.86545H8.82252H8.77968H8.73693H8.69425H8.65166H8.60916H8.56675H8.52442H8.48219H8.44005H8.398H8.35605H8.31419H8.27243H8.23077H8.18921H8.14775H8.10639H8.06514H8.02399H7.98295H7.94202H7.9012H7.86049H7.81989H7.7794H7.73903H7.69878H7.65864H7.61862H7.57872H7.53895H7.4993H7.45977H7.42037H7.38109H7.34195H7.30293H7.26404H7.22529H7.18667H7.14819H7.10984H7.07163H7.03356H6.99563H6.95784H6.9202H6.8827H6.84535H6.80814H6.77108H6.73418H6.69742H6.66082H6.62437H6.58807H6.55194H6.51596H6.48014H6.44448H6.40898H6.37365H6.33848H6.30348H6.26865H6.23398H6.19949H6.16516H6.13101H6.09704H6.06324H6.02961H5.99617H5.9629H5.92982H5.89692H5.8642H5.83167H5.79932H5.76717H5.7352H5.70342H5.67183H5.64044H5.60924H5.57824H5.54743H5.51682H5.48642H5.45621H5.42621H5.39641H5.36681H5.33743H5.30825H5.27928H5.25052H5.22197H5.19364H5.16552H5.13762H5.10994H5.08247H5.05522H5.0282H5.0014H4.97482H4.94847H4.92235H4.89645H4.87078H4.84535H4.82014H4.79518H4.77044H4.74594H4.72168H4.69766H4.67388H4.65034H4.62705H4.604H4.58119H4.55863H4.53632H4.51426H4.49245H4.4709H4.4496H4.42855H4.40776H4.38723H4.36695H4.34694H4.32719H4.3077H4.28848H4.26953H4.25084H4.23242H4.21427H4.19639H4.17878H4.16145H4.1444H4.12762H4.11112H4.0949H4.07896H4.0633H4.04792H4.03283H4.01803H4.00352H3.98929H3.97535H3.96171H3.94836H3.9353H3.92254H3.91008H3.89791H3.88604H3.87448H3.86322H3.85226H3.84161H3.83126H3.82122H3.81149H3.80207H3.79297H3.78417H3.77569H3.76753H3.75968H3.75216H3.74495H3.73807H3.7315H3.72526H3.71935H3.71376H3.70851H3.70358H3.69898H3.69471H3.69078H3.68718H3.68392H3.681H3.67841H3.67617H3.67427H3.67271H3.67149H3.67062H3.6701C3.66998 9.6568 3.66992 9.6568 3.66992 9.7168V9.6568H3.11328Z" fill="#2F80ED" stroke="white" stroke-width="0.12"/>
</svg>
