<svg width="16" height="16" viewBox="0 0 16 16" fill="none" xmlns="http://www.w3.org/2000/svg">
<g clip-path="url(#clip0_2_3359)">
<path fill-rule="evenodd" clip-rule="evenodd" d="M0.946616 15.1781V8.2505L0.80719 8.1469V6.86255L1.01 5.88951V0.830078H14.9775V8.40628L15.1552 8.67874V10.9748L14.9523 11.2732V15.1781H0.946616Z" fill="white"/>
<path fill-rule="evenodd" clip-rule="evenodd" d="M14.0422 9.17409C13.952 9.25155 13.9131 9.3678 13.9131 9.50982C13.9131 9.98758 14.3006 10.0003 14.675 10.0003H14.7396C14.8298 10.0134 14.8687 10.0262 14.9073 10.0522C14.9462 10.0908 14.9718 10.1294 14.9718 10.1939C14.9718 10.2457 14.9462 10.2974 14.9073 10.3231C14.8686 10.362 14.8171 10.3749 14.7266 10.3749H13.9649V10.6847H14.7266C15.1398 10.6847 15.3464 10.5168 15.3464 10.1683C15.3464 10.0132 15.3074 9.91013 15.23 9.83254C15.1398 9.74207 15.0106 9.7034 14.7781 9.7034L14.5588 9.69039C14.4813 9.69039 14.4424 9.69039 14.3908 9.67737C14.3263 9.65172 14.2747 9.58715 14.2747 9.5097C14.2747 9.44513 14.3006 9.39357 14.3522 9.36767C14.4037 9.32875 14.4554 9.32875 14.5329 9.32875H15.2559V9.01892H14.4683C14.2747 9.01905 14.1327 9.07073 14.0422 9.17409Z" fill="white"/>
<path fill-rule="evenodd" clip-rule="evenodd" d="M15.3726 10.1683C15.3726 10.5427 15.1404 10.7104 14.727 10.7104H13.9395V10.349H14.727C14.8045 10.349 14.8562 10.336 14.8947 10.2974C14.9206 10.2844 14.9336 10.2459 14.9336 10.1939C14.9336 10.1424 14.9206 10.1037 14.8947 10.0778C14.856 10.0522 14.8175 10.0392 14.7399 10.0392C14.3653 10.0261 13.8749 10.0522 13.8749 9.50986C13.8749 9.25172 14.0299 8.99345 14.4688 8.99345H15.2822V9.36784H14.5333C14.4559 9.36784 14.4172 9.36784 14.3654 9.39374C14.3267 9.41939 14.3139 9.45806 14.3139 9.50986C14.3139 9.57443 14.3528 9.62598 14.4043 9.639C14.443 9.65202 14.4948 9.66465 14.5594 9.66465H14.7787C15.0112 9.67766 15.1534 9.71645 15.2436 9.80667C15.3339 9.89714 15.3726 10.0004 15.3726 10.1683ZM13.6427 9.80667C13.5522 9.71645 13.3971 9.67754 13.1778 9.66465H12.9582C12.8807 9.66465 12.8421 9.65189 12.7903 9.639C12.7387 9.62598 12.7 9.57443 12.7 9.50986C12.7 9.45806 12.7257 9.41939 12.7646 9.39374C12.8033 9.36784 12.8548 9.36784 12.9323 9.36784H13.6812V8.99345H12.8547C12.4288 8.99345 12.2737 9.25159 12.2737 9.50986C12.2737 10.0522 12.7515 10.0263 13.1387 10.0392C13.2033 10.0392 13.2549 10.0522 13.2808 10.0778C13.3067 10.1037 13.3323 10.1424 13.3323 10.1939C13.3323 10.2458 13.3067 10.2844 13.2808 10.2974C13.2421 10.3361 13.1903 10.349 13.1131 10.349H12.3253V10.7104H13.1257C13.5389 10.7104 13.7713 10.5427 13.7713 10.1683C13.7715 10.0004 13.72 9.89714 13.6427 9.80667ZM12.0803 10.362H11.112V10.0134H12.0546V9.66477H11.112V9.35495H12.0803V8.99358H10.6988V10.7105H12.0803V10.362ZM10.2599 9.07078C10.1307 9.00621 9.97568 8.99358 9.76909 8.99358H8.81384V10.7105H9.22703V10.091H9.67887C9.8209 10.091 9.91111 10.104 9.97568 10.1684C10.0531 10.2459 10.0403 10.4007 10.0403 10.4911V10.7105H10.4534V10.375C10.4534 10.22 10.4404 10.1425 10.3889 10.0649C10.3502 10.0134 10.2727 9.94882 10.1823 9.91016C10.2713 9.87314 10.3472 9.81028 10.4002 9.72969C10.4531 9.6491 10.4807 9.55448 10.4793 9.45806C10.4795 9.26435 10.389 9.14824 10.2599 9.07078ZM7.93592 8.99345H6.61904L6.10263 9.56142L5.5991 8.99345H3.93348V10.7104H5.5732L6.08961 10.1424L6.59314 10.7104H7.3936V10.1424H7.91002C8.27152 10.1424 8.62014 10.0392 8.62014 9.56142C8.62014 9.08367 8.25864 8.99345 7.93592 8.99345ZM9.93715 9.70357C9.87258 9.72922 9.80801 9.72922 9.73055 9.72922H9.22715V9.35483H9.74357C9.80814 9.35483 9.88559 9.35483 9.93727 9.38073C9.98882 9.40638 10.0147 9.45793 10.0147 9.53551C10.0147 9.6131 9.9887 9.66465 9.93715 9.70357ZM7.93592 9.78102H7.3936V9.35483H7.93592C8.07795 9.35483 8.18131 9.40638 8.18131 9.56142C8.18131 9.70357 8.09083 9.78102 7.93592 9.78102ZM6.36077 9.85848L6.99343 9.17414V10.5556L6.36077 9.85848ZM5.35372 10.362H4.34666V10.0134H5.25048V9.66477H4.34666V9.35495H5.37962L5.83147 9.85861L5.35372 10.362ZM14.2363 7.75391H13.6553L12.8807 6.46281V7.75391H12.0416L11.8737 7.3665H11.0215L10.8667 7.75391H10.389C10.1824 7.75391 9.93715 7.71512 9.79512 7.5602C9.6531 7.41818 9.57551 7.22448 9.57551 6.90164C9.57551 6.65639 9.61443 6.42402 9.79512 6.23032C9.92426 6.10118 10.1308 6.03661 10.4149 6.03661H10.8152V6.39812H10.4277C10.2729 6.39812 10.1954 6.42402 10.1049 6.50147C10.0404 6.57893 9.98883 6.72095 9.98883 6.90164C9.98883 7.08246 10.0277 7.21159 10.1049 7.30193C10.1695 7.3665 10.2859 7.39228 10.3891 7.39228H10.5698L11.1508 6.03661H11.7706L12.4677 7.66344V6.03674H13.0875L13.8105 7.23749V6.03674H14.2364V7.75391H14.2363ZM9.36918 6.03674H8.95599V7.75391H9.36918V6.03674ZM8.50415 6.1142C8.37501 6.03674 8.21997 6.03674 8.01338 6.03674H7.058V7.75391H7.47119V7.13413H7.91015C8.06493 7.13413 8.1554 7.14715 8.20708 7.1987C8.28454 7.28905 8.28454 7.43107 8.28454 7.53443V7.75391H8.69772V7.41818C8.69772 7.26327 8.68471 7.18581 8.62027 7.10836C8.59436 7.05668 8.51678 6.99211 8.42656 6.95345C8.52979 6.91466 8.71074 6.77263 8.71074 6.50147C8.71074 6.3079 8.63315 6.19178 8.50415 6.1142ZM6.77383 7.39241H5.81845V7.05681H6.74805V6.70819H5.81845V6.39837H6.77383V6.03687H5.4054V7.75403H6.77395V7.39241H6.77383ZM5.09557 6.03674H4.41123L3.92059 7.1987L3.37827 6.03674H2.70694V7.66356L2.00971 6.03674H1.40295L0.667053 7.75391H1.10601L1.27381 7.3665H2.12596L2.28087 7.75391H3.12012V6.41113L3.714 7.75391H4.0755L4.6695 6.41113V7.75391H5.09557V6.03674ZM11.7318 7.01802L11.4476 6.3338L11.1764 7.01802H11.7318ZM8.16842 6.74686C8.11687 6.77263 8.05204 6.77263 7.97471 6.77263H7.47119V6.39824H7.97471C8.05204 6.39824 8.1295 6.39824 8.16842 6.42415C8.23299 6.44992 8.25864 6.5016 8.25864 6.57906C8.25864 6.65651 8.23299 6.70807 8.16842 6.74686ZM1.41584 7.01802L1.69988 6.3338L1.98393 7.01802H1.41584ZM15.2824 0.665894H0.667053V6.8372L1.15769 5.70114H2.22932L2.37134 5.98519V5.70114H3.62365L3.89481 6.3079L4.16597 5.70114H8.15553C8.33622 5.70114 8.50415 5.72692 8.62039 5.83028V5.70114H9.71779V5.83028C9.89848 5.72692 10.131 5.70114 10.4021 5.70114H11.9773L12.1321 5.98519V5.70114H13.2942L13.4618 5.98519V5.70114H14.598V8.08951H13.4488L13.2295 7.728V8.08951H11.7965L11.6414 7.71512H11.2798L11.125 8.08951H10.3761C10.0793 8.08951 9.85969 8.02494 9.71767 7.94761V8.08951H7.93592V7.54732C7.93592 7.46986 7.92303 7.46986 7.87135 7.46986H7.80679V8.08951H4.37244V7.79257L4.25632 8.08951H3.53331L3.41706 7.80546V8.08951H2.03561L1.8807 7.71512H1.5192L1.36428 8.08951H0.667053V15.3326H15.2824V10.943C15.1144 11.0204 14.8948 11.0591 14.6755 11.0591H13.6168V10.9041C13.4876 10.9945 13.2681 11.0591 13.0614 11.0591H9.70452V10.4911C9.70452 10.4266 9.69176 10.4266 9.62707 10.4266H9.57551V11.0591H8.46523V10.4007C8.28454 10.4781 8.06493 10.4911 7.89713 10.4911H7.75511V11.0591H6.42534L6.08961 10.6847L5.74099 11.0591H3.5721V8.65785H5.77979L6.10263 9.01923L6.43823 8.65785H7.92303C8.09083 8.65785 8.37501 8.67061 8.50415 8.78699V8.65785H9.82103C9.95016 8.65785 10.2213 8.6835 10.389 8.78699V8.65785H12.3903V8.78699C12.4936 8.69652 12.7002 8.65785 12.8809 8.65785H14.0042V8.78699C14.1203 8.70953 14.2883 8.65785 14.5206 8.65785H15.2825V0.665894H15.2824Z" fill="#0077A6"/>
</g>
<defs>
<clipPath id="clip0_2_3359">
<path d="M0 4C0 1.79086 1.79086 0 4 0H12C14.2091 0 16 1.79086 16 4V16H0V4Z" fill="white"/>
</clipPath>
</defs>
</svg>
