<svg width="21" height="16" viewBox="0 0 21 16" fill="none" xmlns="http://www.w3.org/2000/svg">
<path d="M15.2658 5.60117C14.7777 5.42052 14.2619 5.32986 13.7424 5.33348C12.0627 5.33348 10.8764 6.19308 10.868 7.42703C10.8575 8.33356 11.711 8.84442 12.3566 9.14731C13.0191 9.45873 13.2406 9.65496 13.2385 9.93332C13.2343 10.3567 12.7094 10.5487 12.2212 10.5487C11.5504 10.5487 11.184 10.4538 10.6202 10.2159L10.4113 10.1168L10.173 11.5373C10.5814 11.7101 11.3173 11.8584 12.0774 11.8712C13.8632 11.8712 15.0306 11.0169 15.0442 9.70402C15.0589 8.97986 14.597 8.43275 13.6249 7.98055C13.0338 7.68726 12.6674 7.49102 12.6674 7.19347C12.6674 6.93004 12.9813 6.64848 13.6375 6.64848C14.0741 6.63775 14.5081 6.72098 14.9109 6.89271L15.0684 6.96417L15.3067 5.59157L15.2658 5.60117ZM19.6247 5.44866H18.3124C17.904 5.44866 17.5964 5.56278 17.4179 5.97445L14.8941 11.7826H16.6799L17.0368 10.8303L19.2163 10.8324C19.2678 11.0553 19.4252 11.7826 19.4252 11.7826H21L19.6247 5.44866ZM8.45228 5.39534H10.1541L9.08954 11.7325H7.38984L8.45228 5.3932V5.39534ZM4.13218 8.88814L4.30855 9.76801L5.9715 5.44866H7.77408L5.09594 11.7741H3.29755L1.82778 6.41811C1.80397 6.3298 1.74807 6.25395 1.67135 6.20588C1.1416 5.92788 0.580296 5.71692 0 5.57771L0.0230965 5.44439H2.76214C3.13378 5.45932 3.43298 5.57771 3.53272 5.98085L4.13113 8.89134V8.88814H4.13218ZM17.525 9.53445L18.2032 7.76191C18.1948 7.78111 18.3428 7.3961 18.4289 7.15827L18.5455 7.70539L18.9392 9.53338H17.524V9.53445H17.525Z" fill="#1239B4"/>
</svg>
