<svg width="21" height="10" viewBox="0 0 21 10" fill="none" xmlns="http://www.w3.org/2000/svg">
<path d="M19.3036 1.90991C19.7841 1.81539 20.0462 1.50902 20.0462 1.03249C20.0462 -0.0453952 18.8429 0.10967 17.9455 0.10967L17.9455 3.21093H18.5809V1.97046H18.6683L19.5499 3.21093H20.3282L19.3036 1.90991ZM18.7674 1.54685H18.5809V0.605168H18.7754C19.1765 0.605168 19.3949 0.763946 19.3949 1.06279C19.3949 1.38045 19.1765 1.54685 18.7674 1.54685Z" fill="#081D31"/>
<path d="M15.7255 0.113403H17.5245V0.642864H16.361V1.33125H17.4848V1.85309H16.361V2.69273H17.5245V3.21461H15.7255V0.113403Z" fill="#081D31"/>
<path d="M12.9974 0.113403L13.8671 2.20105L14.7487 0.113403H15.4437L14.0339 3.29784H13.6924L12.3025 0.113403H12.9974Z" fill="#081D31"/>
<path d="M10.7776 0C11.7585 0 12.5488 0.756368 12.5488 1.68676C12.5488 2.62092 11.7545 3.37358 10.7776 3.37358C9.79676 3.37358 9.00653 2.61711 9.00653 1.68676C9.00648 0.752605 9.80082 0 10.7776 0Z" fill="url(#paint0_linear_2_3340)"/>
<path d="M8.81986 0.230621V0.949209C8.02173 0.189032 6.96143 0.771518 6.96143 1.6678C6.96143 2.61334 8.05344 3.12394 8.81986 2.39396V3.11255C7.64047 3.65335 6.30615 2.89698 6.30615 1.6678C6.30615 0.487776 7.62061 -0.336665 8.81986 0.230621Z" fill="#081D31"/>
<path d="M4.95992 2.73805C5.41261 2.73805 5.84945 2.15943 4.82887 1.81528C4.23327 1.60724 4.02673 1.38415 4.02673 0.95678C4.02673 0.0793151 5.24184 -0.230766 6.00036 0.416032L5.66677 0.824391C5.2538 0.385732 4.67795 0.589912 4.67795 0.919054C4.67795 1.08541 4.7852 1.17992 5.16641 1.3085C5.88917 1.55813 6.10361 1.78132 6.10361 2.27667C6.10361 3.39242 4.56281 3.69121 3.85596 2.70404L4.26503 2.32964C4.41189 2.59813 4.65809 2.73805 4.95992 2.73805Z" fill="#081D31"/>
<path d="M3.60978 0.113403H2.97437V3.21461H3.60978V0.113403Z" fill="#081D31"/>
<path d="M21 8.17431V4.31726C19.8154 5.02187 12.9534 8.36444 6.21564 9.56929H19.4202C20.2226 9.55981 21 8.93882 21 8.17431Z" fill="url(#paint1_linear_2_3340)"/>
<path d="M0.929295 0.113403H0V3.21461H0.929243C2.15631 3.21461 2.68048 2.3675 2.68048 1.66782C2.68053 0.756341 1.96573 0.113403 0.929295 0.113403ZM1.6718 2.45067C1.47722 2.61708 1.21116 2.69273 0.802138 2.69273H0.635316V0.642864H0.802138C1.21116 0.642864 1.46532 0.707177 1.6718 0.892443C1.89815 1.08162 2.02526 1.36898 2.02526 1.66777C2.02531 1.96656 1.89815 2.25397 1.6718 2.45067Z" fill="#081D31"/>
<defs>
<linearGradient id="paint0_linear_2_3340" x1="10.7777" y1="0" x2="10.7777" y2="3.37358" gradientUnits="userSpaceOnUse">
<stop stop-color="#DE5214"/>
<stop offset="1" stop-color="#F38D1D"/>
</linearGradient>
<linearGradient id="paint1_linear_2_3340" x1="13.6078" y1="4.31726" x2="13.6078" y2="9.56929" gradientUnits="userSpaceOnUse">
<stop stop-color="#E35E17"/>
<stop offset="1" stop-color="#F38E1D"/>
</linearGradient>
</defs>
</svg>
