<svg width="21" height="16" viewBox="0 0 21 16" fill="none" xmlns="http://www.w3.org/2000/svg">
<g clip-path="url(#clip0_2_3353)">
<path d="M4.235 15.9205V14.8615C4.235 14.4555 3.9986 14.1908 3.59339 14.1908C3.39083 14.1908 3.17135 14.2614 3.01939 14.4909C2.90127 14.2967 2.73246 14.1908 2.47922 14.1908C2.31034 14.1908 2.14162 14.2437 2.0065 14.4379V14.2261H1.65198V15.9205H2.0065V14.985C2.0065 14.6851 2.15846 14.5438 2.39486 14.5438C2.63111 14.5438 2.74938 14.7027 2.74938 14.985V15.9205H3.10391V14.985C3.10391 14.6851 3.27263 14.5438 3.49211 14.5438C3.72851 14.5438 3.84664 14.7027 3.84664 14.985V15.9205H4.235ZM9.48524 14.2261H8.91131V13.7143H8.55679V14.2261H8.23603V14.5614H8.55671V15.3381C8.55671 15.7264 8.70867 15.9558 9.11388 15.9558C9.26584 15.9558 9.43456 15.9029 9.55284 15.8323L9.45148 15.5146C9.3502 15.5852 9.23208 15.6029 9.14764 15.6029C8.97883 15.6029 8.91131 15.497 8.91131 15.3204V14.5614H9.48524V14.2261ZM12.4903 14.1908C12.2877 14.1908 12.1527 14.2967 12.0683 14.4379V14.2261H11.7137V15.9205H12.0683V14.9674C12.0683 14.6851 12.1864 14.5262 12.4059 14.5262C12.4734 14.5262 12.5578 14.5439 12.6253 14.5615L12.7266 14.2085C12.6591 14.1908 12.5578 14.1908 12.4903 14.1908V14.1908ZM7.94903 14.3673C7.78015 14.2437 7.54382 14.1908 7.29058 14.1908C6.88546 14.1908 6.61537 14.4026 6.61537 14.738C6.61537 15.0204 6.81794 15.1792 7.17246 15.2322L7.34126 15.2499C7.52698 15.2851 7.62826 15.3381 7.62826 15.4264C7.62826 15.5499 7.49322 15.6381 7.25682 15.6381C7.0205 15.6381 6.83478 15.5499 6.71658 15.4617L6.54778 15.744C6.7335 15.8852 6.98674 15.9558 7.2399 15.9558C7.71263 15.9558 7.98279 15.7264 7.98279 15.4087C7.98279 15.1086 7.7633 14.9498 7.42562 14.8968L7.25682 14.8792C7.10486 14.8615 6.98674 14.8263 6.98674 14.7204C6.98674 14.5968 7.10486 14.5262 7.29058 14.5262C7.49322 14.5262 7.69578 14.6144 7.79707 14.6674L7.94903 14.3673ZM17.3693 14.1908C17.1666 14.1908 17.0316 14.2967 16.9471 14.4379V14.2261H16.5926V15.9205H16.9471V14.9674C16.9471 14.6851 17.0653 14.5262 17.2847 14.5262C17.3523 14.5262 17.4368 14.5439 17.5043 14.5615L17.6056 14.2085C17.5381 14.1908 17.4368 14.1908 17.3693 14.1908ZM12.8448 15.0733C12.8448 15.5852 13.1824 15.9558 13.7058 15.9558C13.9422 15.9558 14.111 15.9029 14.2798 15.7617L14.111 15.4617C13.9759 15.5676 13.8409 15.6205 13.6889 15.6205C13.4019 15.6205 13.1993 15.4087 13.1993 15.0733C13.1993 14.7557 13.4019 14.5438 13.6889 14.5262C13.8409 14.5262 13.9759 14.5791 14.111 14.6851L14.2798 14.385C14.111 14.2437 13.9422 14.1908 13.7058 14.1908C13.1824 14.1908 12.8448 14.5615 12.8448 15.0733ZM16.12 15.0733V14.2261H15.7654V14.4379C15.6472 14.2791 15.4784 14.1908 15.259 14.1908C14.8032 14.1908 14.4486 14.5615 14.4486 15.0733C14.4486 15.5852 14.8032 15.9558 15.259 15.9558C15.4953 15.9558 15.6642 15.8676 15.7654 15.7087V15.9205H16.12V15.0733ZM14.82 15.0733C14.82 14.7733 15.0057 14.5262 15.3096 14.5262C15.5966 14.5262 15.7992 14.7557 15.7992 15.0733C15.7992 15.3734 15.5966 15.6205 15.3096 15.6205C15.0057 15.6028 14.82 15.3734 14.82 15.0733ZM10.5826 14.1908C10.1099 14.1908 9.77224 14.5438 9.77224 15.0733C9.77224 15.6029 10.1098 15.9558 10.5995 15.9558C10.8358 15.9558 11.0722 15.8852 11.2579 15.7264L11.0891 15.4617C10.954 15.5676 10.7852 15.6381 10.6164 15.6381C10.3969 15.6381 10.1774 15.5323 10.1268 15.2321H11.3255V15.091C11.3424 14.5438 11.0385 14.1908 10.5826 14.1908H10.5826ZM10.5826 14.5085C10.8021 14.5085 10.9541 14.6498 10.9878 14.9145H10.1437C10.1774 14.6851 10.3294 14.5085 10.5826 14.5085ZM19.3782 15.0733V13.5554H19.0237V14.4379C18.9055 14.2791 18.7367 14.1908 18.5172 14.1908C18.0614 14.1908 17.7069 14.5615 17.7069 15.0733C17.7069 15.5852 18.0614 15.9558 18.5172 15.9558C18.7536 15.9558 18.9224 15.8676 19.0237 15.7087V15.9205H19.3782V15.0733ZM18.0783 15.0733C18.0783 14.7733 18.2639 14.5262 18.5679 14.5262C18.8549 14.5262 19.0574 14.7557 19.0574 15.0733C19.0574 15.3734 18.8549 15.6205 18.5679 15.6205C18.2639 15.6028 18.0783 15.3734 18.0783 15.0733ZM6.22701 15.0733V14.2261H5.87249V14.4379C5.75429 14.2791 5.58549 14.1908 5.36601 14.1908C4.9102 14.1908 4.55568 14.5615 4.55568 15.0733C4.55568 15.5852 4.9102 15.9558 5.36601 15.9558C5.60241 15.9558 5.77121 15.8676 5.87249 15.7087V15.9205H6.22701V15.0733ZM4.9102 15.0733C4.9102 14.7733 5.09592 14.5262 5.39977 14.5262C5.68677 14.5262 5.88941 14.7557 5.88941 15.0733C5.88941 15.3734 5.68677 15.6205 5.39977 15.6205C5.09592 15.6028 4.9102 15.3734 4.9102 15.0733Z" fill="black"/>
<path d="M7.83105 1.35901H13.1489V11.349H7.83105V1.35901Z" fill="#FF5F00"/>
<path d="M8.16883 6.35409C8.16883 4.32434 9.08044 2.52398 10.4816 1.35904C9.45188 0.511839 8.15199 0 6.7339 0C3.37423 0 0.65625 2.84165 0.65625 6.35409C0.65625 9.86645 3.37423 12.7082 6.73382 12.7082C8.15191 12.7082 9.4518 12.1963 10.4816 11.3491C9.08044 10.2018 8.16883 8.38384 8.16883 6.35409Z" fill="#EB001B"/>
<path d="M20.3241 6.35409C20.3241 9.86645 17.6062 12.7082 14.2466 12.7082C12.8285 12.7082 11.5286 12.1963 10.4988 11.3491C11.9169 10.1842 12.8116 8.38384 12.8116 6.35409C12.8116 4.32434 11.9 2.52398 10.4988 1.35904C11.5285 0.511839 12.8285 0 14.2466 0C17.6062 0 20.3242 2.85934 20.3242 6.35409H20.3241Z" fill="#F79E1B"/>
</g>
<defs>
<clipPath id="clip0_2_3353">
<path d="M0 4C0 1.79086 1.79086 0 4 0H17C19.2091 0 21 1.79086 21 4V16H0V4Z" fill="white"/>
</clipPath>
</defs>
</svg>
